<svg width="61" height="60" viewBox="0 0 61 60" fill="none" xmlns="http://www.w3.org/2000/svg">
<rect width="60" height="60" fill="white"/>
<g clip-path="url(#clip0)">
<path d="M9.43748 56.4371C10.9891 56.4371 12.2469 55.8569 12.2469 55.1412C12.2469 54.4254 10.9891 53.8452 9.43748 53.8452C7.88587 53.8452 6.62805 54.4254 6.62805 55.1412C6.62805 55.8569 7.88587 56.4371 9.43748 56.4371Z" fill="#D44A28"/>
<path d="M14.1217 51.5223C14.1217 53.4708 12.0242 55.5908 9.43755 55.5908C6.85093 55.5908 4.75342 53.4708 4.75342 51.5223C4.75342 49.5738 14.1217 49.5738 14.1217 51.5223Z" fill="#ED603A"/>
<path d="M9.43755 52.5664C11.9954 52.5664 14.0689 51.9573 14.0689 51.2059C14.0689 50.4545 11.9954 49.8453 9.43755 49.8453C6.8797 49.8453 4.80615 50.4545 4.80615 51.2059C4.80615 51.9573 6.8797 52.5664 9.43755 52.5664Z" fill="#FF8A65"/>
<path d="M13.3543 51.1136C13.3543 51.5447 11.8857 52.022 9.43748 52.022C7.02883 52.022 5.52063 51.5447 5.52063 51.1136C5.52063 50.6825 7.27405 50.1697 9.43748 50.1697C11.6009 50.1697 13.3543 50.6838 13.3543 51.1136Z" fill="#5D4037"/>
<path opacity="0.18" d="M14.0637 51.2665C14.0663 51.2468 14.0689 51.2257 14.0689 51.2059C14.0689 50.4544 11.9952 49.8453 9.43755 49.8453C6.87993 49.8453 4.80615 50.4544 4.80615 51.2059C4.80615 51.2257 4.80879 51.2468 4.81143 51.2665C4.77319 51.3483 4.75342 51.434 4.75342 51.5223C4.75342 52.4175 5.16606 53.2573 5.78306 53.9415C5.87139 54.039 7.04077 53.7622 7.79355 53.3153C9.23716 52.4596 10.3881 51.9943 10.3881 51.9943C10.3881 51.9943 9.8436 52.0193 9.43623 52.0193C7.02759 52.0193 5.51938 51.5421 5.51938 51.111C5.51938 50.6799 7.2728 50.167 9.43623 50.167C11.5997 50.167 13.3531 50.6799 13.3531 51.111C13.3531 51.4168 12.6108 51.7464 11.3043 51.9112C11.4256 51.9099 11.6181 51.927 11.8501 52.0193C12.5581 52.2988 13.51 53.4972 13.7657 52.9501C13.9885 52.4715 14.1204 52.0694 14.1204 51.5197C14.1217 51.4326 14.1006 51.3469 14.0637 51.2665V51.2665Z" fill="#212121"/>
<path d="M12.2838 46.2856C12.2891 46.2474 12.3115 46.0562 12.0175 46.0009C11.7235 45.9455 11.4889 45.9679 11.4889 45.9679L11.3214 45.492C11.4493 45.0595 11.6616 44.8578 11.481 44.4122C11.4388 44.3094 11.2133 44.2488 11.0274 44.3015C11.0274 44.3015 10.8429 44.2962 10.6833 44.4083C10.5462 44.5058 9.9688 44.9936 9.86992 44.7075C9.82905 44.5889 9.88838 44.5177 10.1402 44.3371C10.3656 44.1762 10.6161 44.0405 10.8139 43.8453C11.1527 43.5092 10.9391 43.0372 10.9391 43.0372C10.9391 43.0372 10.6702 42.9357 10.4553 43.0991C10.2918 43.2231 10.1639 43.2943 10.0874 43.3457C9.71435 43.5962 9.69062 43.2323 9.92793 43.0912L10.3683 42.7946C10.8218 42.4795 10.6187 41.9706 10.6187 41.9706C10.6187 41.9706 10.4882 41.9298 10.3168 42.0471C10.2562 42.0893 10.1916 42.146 10.0967 42.1921C9.95693 42.2594 9.86201 42.2949 9.80796 42.1987C9.77104 42.1328 9.83828 42.0524 9.96748 41.9601C10.1151 41.8559 10.1956 41.8388 10.2984 41.6925C10.4579 41.467 10.4157 41.1823 10.3735 41.1216C10.3327 41.0623 10.0149 41.413 9.95693 41.2785C9.91211 41.1743 10.0545 40.9845 9.90288 40.7156C9.7895 40.5152 9.57724 40.4242 9.57724 40.4242C9.41508 40.6404 9.39531 41.0056 9.5311 41.2429C9.61416 41.3879 9.70908 41.5184 9.62339 41.5975C9.56274 41.6529 9.48496 41.5764 9.3584 41.4934C9.16723 41.3695 8.91543 41.467 8.91543 41.467C8.91543 41.467 8.80337 41.7913 8.97607 42.0062C9.10132 42.1631 9.20283 42.2224 9.39663 42.3859C9.60361 42.5599 9.481 42.7577 9.23579 42.6272C9.1501 42.581 9.03012 42.4861 8.89697 42.4281C8.69922 42.3411 8.41445 42.4742 8.41445 42.4742C8.41445 42.4742 8.30766 42.9607 8.57925 43.1334C8.67153 43.1927 9.05649 43.4498 9.18701 43.5171C9.45727 43.6568 9.39267 43.9983 9.08945 43.8546C8.87324 43.7517 8.64253 43.579 8.4039 43.4749C8.0875 43.3365 7.87524 43.4841 7.87524 43.4841C7.87524 43.4841 7.78032 43.9086 8.02422 44.1459C8.18506 44.3028 8.57529 44.5586 8.72954 44.6509C8.87851 44.7392 9.11054 44.8367 9.05781 44.9462C8.91411 45.2468 8.45136 45.0266 8.24438 44.9093C7.87788 44.701 7.4916 44.5533 7.27407 44.7234C7.05522 44.8948 7.21474 45.4168 7.20683 45.6462C7.18838 46.1551 7.61816 46.1762 7.76845 46.602C7.79746 46.6851 7.79087 46.7774 7.78559 46.8657C7.75 47.4471 7.79746 48.0351 7.92402 48.6033C7.93852 48.6679 7.95698 48.7378 8.00708 48.78C8.05586 48.8221 8.12573 48.8301 8.19033 48.8353C8.85083 48.8933 9.51528 48.9223 10.1784 48.9223C10.6794 48.9223 11.1922 48.9026 11.655 48.7114C11.7394 48.6758 11.8277 48.631 11.8738 48.5519C11.9147 48.4833 11.5904 47.5868 11.6418 47.5262C11.9437 47.1689 12.2245 46.6851 12.2838 46.2856V46.2856Z" fill="url(#paint0_linear)"/>
<path d="M16.9522 45.3338C16.8744 45.3246 16.8217 45.3391 16.8599 45.2547C16.9073 45.1479 16.9192 45.1097 16.9377 45.0358C16.9825 44.8486 16.9113 44.7234 16.9113 44.7234C16.9113 44.7234 16.6582 44.7524 16.5422 44.9871C16.4815 45.1097 16.3945 45.4103 16.2482 45.3048C16.1875 45.26 16.2416 45.1861 16.2495 45.0648C16.2679 44.8078 16.0662 44.7563 16.0662 44.7563C16.0662 44.7563 15.8171 44.8289 15.7511 45.0569C15.6958 45.2507 15.6826 45.3562 15.6523 45.5342C15.6233 45.7056 15.643 45.7899 15.5204 45.8216C15.415 45.8493 15.3543 45.7688 15.3675 45.6396C15.3846 45.4551 15.386 45.2956 15.386 45.2956C15.4242 45.0095 15.1315 44.9633 15.1315 44.9633C15.1315 44.9633 14.8257 44.9897 14.7439 45.3285C14.6991 45.517 14.6872 45.5935 14.6464 45.8479C14.6266 45.9692 14.6253 46.1235 14.5198 46.2158C14.4077 46.3133 14.2772 46.2263 14.2812 46.0154C14.2838 45.8598 14.301 45.7636 14.2904 45.5342C14.2799 45.3048 14.0333 45.2903 14.0333 45.2903C14.0333 45.2903 13.6523 45.4538 13.6378 45.8466C13.6273 46.1208 13.6207 46.5704 13.6286 46.6983C13.6286 46.6983 13.6668 46.9356 13.4809 47.0081C13.3676 47.0503 13.237 46.9791 13.2304 46.7721C13.2212 46.4966 13.2291 46.4689 13.2133 46.1195C13.1988 45.7926 12.9325 45.699 12.9325 45.699C12.9325 45.699 12.5278 45.7438 12.45 46.134C12.4038 46.3621 12.4078 47.3601 12.0782 47.3496C11.6959 47.3364 10.9233 46.4992 10.6596 47.4498C10.6148 47.6093 10.5212 47.7556 10.3867 47.8519C10.2114 47.9797 9.98992 48.0193 9.7803 48.0786C9.08816 48.2737 8.48567 48.7299 8.0717 49.3126C7.85286 49.6211 7.13962 50.9408 7.55754 51.2466C7.70652 51.3561 8.19563 51.3165 8.39734 51.3165C8.84426 51.3178 9.28987 51.3191 9.73679 51.3191C10.3881 51.3205 11.038 51.3218 11.6893 51.3244C11.713 51.1873 11.7183 51.0542 11.7104 50.9236L11.8857 50.925L13.1487 50.9737C13.1487 50.9737 13.4058 50.4859 13.6418 50.3805C13.6734 50.366 14.1362 50.0245 14.1217 49.9929C13.9371 49.5842 12.9009 49.1926 12.9009 49.1926C13.0683 49.1794 13.3135 48.9896 13.7617 49.2322C14.2957 49.5209 14.6226 49.3891 14.6226 49.3891C14.6226 49.3891 14.7413 49.2111 14.3932 48.7668C14.2113 48.5334 13.4084 48.1221 13.4084 48.1221C13.3214 48.0628 13.0907 48.0035 13.1988 47.8334C13.2726 47.7161 13.5838 47.8176 13.8567 47.9666C14.0874 48.0931 14.0478 48.1076 14.5646 48.3937C14.8863 48.5717 15.3306 48.3937 15.3306 48.3937C15.3306 48.3937 15.3543 47.9916 15.0735 47.7358C14.8362 47.5196 14.2904 47.1927 14.2904 47.1927C14.1638 47.0846 14.1441 46.9976 14.2469 46.9409C14.3959 46.8604 14.5752 46.9725 14.7439 47.0582C14.9127 47.1439 15.3754 47.3707 15.3754 47.3707C15.6364 47.513 16.0385 47.4682 16.0385 47.4682C16.0385 47.4682 16.1282 47.1465 16.0003 46.9936C15.8157 46.7721 15.2844 46.5361 15.2844 46.5361C15.1513 46.4386 15.117 46.3792 15.1922 46.2988C15.2673 46.2197 15.3359 46.221 15.5587 46.3252C15.7933 46.4359 15.9753 46.5256 16.1862 46.5941C16.3971 46.6627 16.7847 46.5322 16.7847 46.5322C16.7847 46.5322 16.7729 46.2329 16.5751 46.1011C16.4222 45.9996 16.2376 45.9257 16.2376 45.9257C16.1348 45.8901 16.0544 45.8084 16.1058 45.7122C16.1664 45.6014 16.4011 45.6963 16.5501 45.7253C16.7676 45.7675 16.8863 45.7781 17.1117 45.6963C17.2593 45.6423 17.3424 45.4907 17.3424 45.4907C17.3424 45.4907 17.3239 45.3799 16.9522 45.3338V45.3338Z" fill="url(#paint1_radial)"/>
<path d="M11.9082 48.3053C11.7117 48.1366 11.4454 48.0456 11.187 48.0746C11.0578 48.0891 10.9286 48.13 10.7981 48.1194C10.6676 48.1076 10.5292 48.0192 10.5226 47.8887C10.5186 47.803 10.57 47.7266 10.6149 47.6541C10.7322 47.4642 10.8179 47.2375 10.7652 47.0212C10.7124 46.805 10.4738 46.6271 10.2655 46.7062C10.0677 46.7813 10.0031 47.0226 9.9359 47.2229C9.84493 47.4958 9.70123 47.7516 9.51666 47.9731C9.43624 48.0693 9.31759 48.1682 9.19762 48.13C9.02492 48.0772 9.37955 47.0951 9.0025 46.2882C8.88912 46.047 8.7942 45.8281 8.70192 45.8281C8.5424 45.8281 8.48966 46.37 8.44484 46.5664C8.40529 46.7417 8.31564 47.0779 8.14557 47.1017C8.03219 47.1175 7.89376 46.9355 7.85817 46.8644C7.73952 46.6297 7.51408 46.0417 7.26095 45.9072C7.06715 45.8057 6.83776 45.9441 6.83776 46.2685C6.83776 46.3779 7.07243 47.1043 7.22272 47.5077C7.27018 47.6356 7.01705 47.7292 6.89181 47.4906C6.89181 47.4906 6.50553 46.8459 6.35392 46.6284C6.12716 46.3014 5.71583 46.3607 5.71583 46.3607C5.71583 46.3607 5.54972 46.631 5.68815 47.0252C5.80285 47.3548 5.79098 47.2678 5.89117 47.5249C5.96764 47.7187 5.87535 47.8347 5.75538 47.8413C5.55631 47.8479 5.49699 47.6158 5.49699 47.6158C5.45348 47.4958 5.26891 47.0858 5.15026 46.8393C4.98019 46.4847 4.56622 46.486 4.56622 46.486C4.56622 46.486 4.34474 46.5967 4.42648 46.8116C4.50822 47.0265 4.56227 47.1083 4.62687 47.2493C4.7152 47.4418 4.62951 47.5736 4.48844 47.5288C4.3566 47.4866 4.29332 47.3456 4.22609 47.2414C4.08766 47.0239 4.04679 46.9593 3.92946 46.805C3.72116 46.5269 3.42848 46.6231 3.42848 46.6231C3.42848 46.6231 3.17799 46.7826 3.32697 47.0292C3.32697 47.0292 3.39157 47.1742 3.48121 47.3376C3.54318 47.451 3.52076 47.5486 3.41266 47.5657C3.28742 47.5855 3.27291 47.4998 3.17799 47.3548C3.07911 47.2045 3.02506 47.1122 2.89718 46.9566C2.74557 46.7734 2.48849 46.8063 2.48849 46.8063C2.48849 46.8063 2.32501 46.9329 2.44367 47.1623C2.49904 47.2704 2.57946 47.3166 2.54122 47.3812C2.45026 47.5367 2.24987 47.2955 2.14572 47.2071C1.94533 47.0384 1.70143 47.1122 1.70143 47.1122C1.70143 47.1122 1.68561 47.2572 1.80162 47.4102C1.84777 47.4708 1.87413 47.5011 1.95983 47.5802C2.02838 47.6435 1.97433 47.6501 1.90709 47.6896C1.5841 47.8795 1.6131 47.9876 1.6131 47.9876C1.6131 47.9876 1.74889 48.0931 1.90577 48.0852C2.14572 48.072 2.24987 48.014 2.43312 47.8887C2.55836 47.803 2.73634 47.6211 2.83522 47.7002C2.92091 47.7674 2.88004 47.8755 2.79962 47.9494C2.79962 47.9494 2.65988 48.0904 2.55968 48.2447C2.43048 48.4437 2.53859 48.7232 2.53859 48.7232C2.53859 48.7232 2.94728 48.6863 3.11207 48.5413C3.27819 48.395 3.4087 48.2394 3.58009 48.0456C3.74357 47.861 3.80553 47.832 3.90573 47.8755C4.00592 47.9177 3.99801 47.9863 3.91495 48.13C3.91495 48.13 3.52077 48.5584 3.43903 48.8353C3.38234 49.0265 3.59327 49.2862 3.59327 49.2862C3.59327 49.2862 3.97955 49.1675 4.16281 48.9329C4.16281 48.9329 4.49767 48.54 4.61764 48.395C4.73893 48.25 4.8589 48.0746 5.02765 48.0904C5.14367 48.101 5.1608 48.1893 5.08829 48.3383C5.08829 48.3383 4.71784 48.8551 4.586 49.1478C4.43043 49.4932 4.61105 49.8531 4.61105 49.8531C4.61105 49.8531 5.09093 49.8386 5.31373 49.5485C5.67365 49.0792 5.63146 49.0818 5.79362 48.8749C5.98478 48.6296 6.22999 48.4121 6.34337 48.4899C6.5108 48.6046 6.32228 48.7496 6.26559 48.8393C6.26559 48.8393 5.72242 49.5459 5.61827 49.8228C5.46403 50.2301 5.63541 50.6718 5.63541 50.6718C5.63541 50.6718 6.11002 50.6322 6.48576 50.1866C6.55167 50.1088 6.60836 50.039 6.6611 49.9757L6.95905 50.1748C6.81798 50.4239 6.71383 50.6797 6.61495 50.9908C6.8549 50.9104 7.9966 51.3151 7.9966 51.3151L11.688 51.3244C11.7117 51.1873 11.717 51.0541 11.7091 50.9236L11.8844 50.9249L13.1474 50.9737C13.1474 50.9737 13.4045 50.4859 13.6405 50.3804C13.6721 50.3659 13.6814 50.3277 13.6589 50.3013C13.4559 50.0719 13.2133 49.7924 12.9378 49.6474C12.6992 49.5222 12.4487 49.5644 12.3182 49.2651C12.1811 48.9526 12.2285 48.6349 11.978 48.3726C11.9569 48.3488 11.9332 48.3264 11.9082 48.3053V48.3053Z" fill="url(#paint2_radial)"/>
<path d="M10.8811 47.6555C10.7387 47.5777 10.6833 47.4683 10.7861 47.3865C10.8323 47.3496 11.0142 47.4234 11.3491 47.5144C11.7815 47.6317 12.0399 47.7056 12.3128 47.6937C12.8652 47.6713 12.9443 47.1927 12.9443 47.1927C12.9443 47.1927 12.8771 46.991 12.3629 46.9554C12.1638 46.9422 11.8079 46.8684 11.5231 46.7867C11.2594 46.7115 11.0393 46.5691 11.1711 46.4413C11.2502 46.3648 11.4124 46.436 11.593 46.4676C11.9885 46.5375 12.3115 46.6153 12.5607 46.6219C13.0854 46.6364 13.2647 46.3042 13.2647 46.3042C13.2647 46.3042 13.1961 45.9957 12.7914 45.8955C12.5752 45.8414 12.3378 45.8071 11.9041 45.7148C11.6523 45.6621 11.6681 45.5843 11.7433 45.5171C11.8448 45.4261 12.0531 45.4485 12.181 45.4591C12.4895 45.4868 12.8757 45.5791 13.088 45.5922C13.4545 45.6147 13.6443 45.3404 13.6443 45.3404C13.6443 45.3404 13.6312 45.028 13.2752 44.9159C12.9377 44.8091 12.8573 44.854 12.5923 44.7564C12.4235 44.6944 12.3642 44.6232 12.4315 44.5626C12.4934 44.5072 12.6266 44.5059 12.8836 44.527C13.2277 44.5547 13.4954 44.6153 13.7564 44.6391C14.206 44.6799 14.3352 44.3938 14.3352 44.3938C14.3352 44.3938 14.2943 44.15 13.9753 44.0524C13.8223 44.0049 13.6549 43.9878 13.3925 43.9113C13.2871 43.881 13.2699 43.823 13.3134 43.7544C13.3569 43.6872 13.4769 43.6727 13.6457 43.6898C13.9383 43.7202 14.0425 43.7452 14.2482 43.7769C14.6568 43.8415 14.8612 43.6622 14.8612 43.6622C14.8612 43.6622 14.91 43.4183 14.6766 43.3352C14.4617 43.2587 14.3128 43.2522 14.1572 43.2113C14.0016 43.1704 14.0201 43.1045 14.0715 43.0676C14.2482 42.9397 14.7781 43.1401 14.9601 43.1599C15.2699 43.1941 15.4386 43.0122 15.4386 43.0122C15.4386 43.0122 15.4861 42.7841 15.262 42.7063C15.0827 42.6444 14.9179 42.6378 15.0154 42.5481C15.0629 42.5046 15.2277 42.4901 15.3134 42.4967C15.5744 42.5152 15.6746 42.5429 15.7999 42.5099C15.9172 42.4796 16.0728 42.3662 16.1598 42.2805C15.9699 42.1553 15.7511 42.1197 15.5296 42.0854C15.2831 42.0472 15.1446 42.328 15.022 42.2884C14.9614 42.2687 15.0972 42.0564 14.9574 42.0709C14.8744 42.0801 14.6951 42.1236 14.6252 42.324C14.5632 42.5007 14.5514 42.7617 14.3721 42.7261C14.2613 42.705 14.3062 42.5798 14.322 42.4915C14.3655 42.2542 14.2627 42.2172 14.2627 42.2172C14.2627 42.2172 13.8948 42.2106 13.7709 42.5969C13.705 42.8013 13.6681 43.1585 13.4993 43.1533C13.3556 43.1493 13.4123 42.9845 13.4097 42.8408C13.4057 42.6114 13.1935 42.5837 13.1935 42.5837C13.1935 42.5837 12.8415 42.6536 12.8217 42.9502C12.8138 43.0636 12.8085 43.2785 12.8085 43.5303C12.8085 43.7452 12.7545 43.9153 12.6727 43.9522C12.5145 44.0247 12.5092 43.8217 12.4961 43.6107C12.4829 43.4011 12.4895 43.2812 12.4565 43.1902C12.4077 43.0584 12.1375 43.0702 12.1375 43.0702C12.1375 43.0702 11.8421 43.293 11.854 43.5356C11.8632 43.7254 11.8936 44.0089 11.9133 44.1223C11.9476 44.3213 11.945 44.5916 11.8276 44.6971C11.7129 44.7999 11.6312 44.4809 11.5442 44.0063C11.4664 43.5791 11.1395 43.6332 11.1395 43.6332C11.1395 43.6332 10.827 43.8678 10.8758 44.237C10.9114 44.5112 10.9707 44.7103 11.0208 44.8737C11.1447 45.2798 11.1645 45.4261 11.1263 45.5184C10.9733 45.8876 10.7861 45.2692 10.62 44.7643C10.5053 44.4149 10.1968 44.4558 10.1968 44.4558C10.1968 44.4558 9.92525 44.7129 9.9859 45.0306C10.0861 45.5593 10.2628 45.8572 10.3774 46.0523C10.591 46.4188 10.6358 46.581 10.5963 46.6772C10.5528 46.7814 10.3537 46.6759 10.1982 46.4188C10.032 46.1407 9.95821 45.9732 9.83956 45.6318C9.73804 45.3417 9.62335 45.3787 9.62335 45.3787C9.62335 45.3787 9.37154 45.7386 9.49547 46.142C9.74332 46.9462 10.2364 47.3417 10.2825 47.3865C10.3933 47.492 10.2403 47.4999 10.0228 47.3984C9.7855 47.2876 9.45987 46.6852 9.45987 46.6852C9.45987 46.6852 9.36099 47.0029 9.5482 47.4168C9.76573 47.8967 10.0914 47.9547 10.2931 48.0048C10.5291 48.0642 10.6161 48.0272 10.7347 48.1723C11.2278 48.7813 11.9437 48.6851 12.0636 48.6851C12.6477 48.6851 12.7123 48.2764 12.7123 48.2764C12.7123 48.2764 12.6253 48.0918 12.2429 48.0259C12.0913 47.9996 11.9318 48.0154 11.4414 47.873C11.2726 47.8269 11.0432 47.7438 10.8811 47.6555V47.6555Z" fill="#73B03E"/>
<path d="M8.84821 44.871C8.84821 44.871 8.53575 45.0002 8.49357 45.2533C8.44215 45.5104 8.4316 46.2698 8.29713 46.569C8.2088 46.7642 8.05323 46.6415 8.11388 46.3238C8.19166 45.9204 8.28527 45.4062 8.2233 44.9804C8.17189 44.6297 7.87394 44.4096 7.87394 44.4096C7.87394 44.4096 7.57467 44.4518 7.54303 44.6363C7.4903 44.9461 7.50612 45.219 7.48766 45.4273C7.47447 45.5724 7.47579 45.8321 7.29254 45.7833C7.17521 45.753 7.20817 45.3997 7.21212 45.2929C7.22003 45.0437 7.26486 44.9264 7.2609 44.4531C7.25695 44.0721 6.84694 43.8638 6.84694 43.8638C6.84694 43.8638 6.61095 43.9257 6.57404 44.1578C6.51866 44.5111 6.55558 44.9 6.34069 44.8328C6.20094 44.7893 6.30905 44.2303 6.26949 43.9376C6.22994 43.637 5.95968 43.4603 5.95968 43.4603C5.95968 43.4603 5.7026 43.4669 5.68282 43.7385C5.66569 43.9864 5.7026 44.3371 5.48112 44.345C5.26227 44.3529 5.37565 43.9785 5.31237 43.5474C5.26622 43.2336 4.91686 43.111 4.91686 43.111C4.91686 43.111 4.64132 43.1545 4.64396 43.376C4.64528 43.4603 4.62946 43.6818 4.49103 43.6528C4.36578 43.6265 4.31305 43.4472 4.28273 43.3443C4.24449 43.2178 4.21417 43.1321 4.11398 43.0358C3.99796 42.9238 3.66573 42.8196 3.65387 42.8249C3.63409 42.8341 3.60509 43.107 3.64596 43.2151C3.7066 43.3786 3.81866 43.4669 3.91754 43.6001C4.04279 43.7675 3.84767 43.7385 3.7132 43.8229C3.55367 43.9231 3.51544 44.1037 3.51544 44.1037C3.51544 44.1037 3.70001 44.2606 3.88854 44.2738C4.06783 44.287 4.23527 44.2316 4.39874 44.1828C4.60968 44.1182 4.81271 44.0681 4.87994 44.167C4.98278 44.316 4.63209 44.3252 4.38424 44.5282C4.22999 44.6548 4.21417 44.8684 4.21417 44.8684C4.21417 44.8684 4.60045 45.1215 4.79425 45.0529C5.16998 44.9185 5.30314 44.8064 5.48375 44.7484C5.69073 44.6811 5.92145 44.7879 5.68282 44.9554C5.51144 45.0767 5.3005 45.194 5.16207 45.3337C4.992 45.5038 5.00651 45.7292 5.00651 45.7292C5.00651 45.7292 5.28468 45.9389 5.51671 45.8861C5.89904 45.7991 6.13634 45.6145 6.33937 45.5183C6.58326 45.4036 6.68346 45.4326 6.76652 45.4999C6.85616 45.5737 6.68478 45.6475 6.4712 45.7569C6.22467 45.8835 5.95309 46.1076 5.85157 46.217C5.71974 46.3594 5.73292 46.863 5.73292 46.863C5.73292 46.863 6.14689 47.016 6.4923 46.8564C6.85616 46.689 7.23849 46.3054 7.40065 46.3634C7.65114 46.4517 7.46129 46.5928 7.10402 46.8802C6.83243 47.099 6.59645 47.2572 6.42638 47.4471C6.26686 47.625 6.27609 48.0812 6.27609 48.0812C6.27609 48.0812 6.48439 48.2051 6.79288 48.1788C7.18839 48.1458 7.6986 47.4734 7.89239 47.2928C8.01896 47.1755 8.13761 47.3311 7.9214 47.7318C7.58785 48.3515 7.43229 48.3488 7.26486 48.8248C7.13566 49.1952 7.35319 49.5525 7.35319 49.5525C7.35319 49.5525 7.69464 49.6395 7.92667 49.476C8.11124 49.3468 8.2444 49.095 8.37755 48.7351C8.40919 48.6507 8.47247 48.4477 8.46588 47.9204C8.46193 47.5288 8.39073 47.633 8.59508 47.2823C9.07233 46.4636 9.21339 46.0931 9.14747 45.4735C9.10924 45.0991 8.84821 44.871 8.84821 44.871V44.871Z" fill="#73B03E"/>
<path d="M10.7941 48.6468C10.7941 48.6468 10.1046 48.8498 9.87524 49.0476C9.64585 49.2467 9.39009 49.5973 9.11587 49.6962C8.84165 49.7951 8.64917 49.7714 8.64917 49.7714C8.64917 49.7714 8.80737 49.1478 9.23188 48.8446C9.66035 48.5374 10.3037 48.4042 10.7941 48.6468Z" fill="#A1D65C"/>
<path d="M6.83899 50.2617H13.3543V51.4087H6.83899V50.2617Z" fill="url(#paint3_linear)"/>
<path d="M15.8079 54.1103C15.8382 54.0021 15.8224 53.8584 15.8263 53.6409C15.829 53.5144 15.9028 53.5117 16.1177 53.7292C16.2126 53.8255 16.3879 53.8413 16.3879 53.8413C16.409 53.4379 16.235 53.3192 15.9568 53.1624C15.7116 53.0252 15.473 52.9751 15.5824 52.8222C15.618 52.7721 15.7828 52.8525 15.8672 52.8855C16.3642 53.0819 16.4077 52.9303 16.4077 52.9303C16.4077 52.9303 16.3748 52.5454 15.8711 52.3687C15.6286 52.2843 15.2159 52.2237 15.2212 52.1011C15.2265 51.9402 15.4559 52.0009 15.5903 52.0338C16.2706 52.1973 16.3326 52.0932 16.3326 52.0932C16.3326 52.0932 16.1941 51.5355 15.5534 51.4248C15.237 51.3707 14.6728 51.3206 14.6451 51.1703C14.6161 51.0108 15.2304 51.1018 15.4756 51.1413C15.8171 51.1967 15.916 51.1083 15.916 51.1083C15.916 51.1083 15.7683 50.5876 15.0459 50.5256C14.5132 50.4808 14.1665 50.552 14.0808 50.4175C14.0044 50.2949 14.4961 50.2646 14.9707 50.3002C15.3438 50.3279 15.5455 50.3186 15.5455 50.3186C15.5455 50.3186 15.4031 49.79 14.6213 49.7359C13.8435 49.6819 13.1263 49.8875 13.216 49.7346C13.3109 49.5738 13.6233 49.5487 14.0189 49.529C14.2206 49.5197 14.4697 49.5263 14.6016 49.5092C14.9101 49.4696 15.005 49.3444 15.005 49.3444C15.005 49.3444 14.678 49.0372 14.2034 48.9541C13.7855 48.8816 13.4348 48.9396 12.9431 49.0557C12.6728 49.1189 12.3485 49.2112 12.2575 49.1348C12.1982 49.086 12.4289 48.9436 12.6741 48.8843C12.8772 48.8355 13.2661 48.7986 13.5377 48.7762C13.709 48.763 13.8198 48.7063 13.8198 48.7063C13.8198 48.7063 13.7486 48.6483 13.6207 48.5837C13.3834 48.4637 12.98 48.3569 12.5884 48.436C12.3524 48.4835 12.1745 48.527 11.9873 48.6707C11.7948 48.8184 11.6854 48.9555 11.4507 48.9476C11.216 48.941 11.0815 48.8447 10.6597 48.9858C10.4764 49.0478 10.1073 49.3141 9.81592 49.6502C9.5127 50.0009 9.57598 50.3279 9.57598 50.3279C9.57598 50.3279 9.89503 50.4228 10.2167 50.2435C10.6689 49.9917 11.2094 49.2692 11.4401 49.2956C11.7157 49.3272 11.3347 49.6041 11.1554 49.7966C10.7506 50.229 10.5621 50.614 10.5081 50.9383C10.4593 51.2323 10.5753 51.3747 10.5753 51.3747C10.5753 51.3747 10.9879 51.3153 11.1646 51.0714C11.4204 50.7168 11.6933 50.3832 11.8712 50.1367C12.0901 49.8335 12.2167 49.7346 12.3274 49.6872C12.5436 49.5949 12.7163 49.6582 12.4039 50.0154C12.0308 50.4413 11.7117 50.908 11.6287 51.2362C11.5482 51.5513 11.7038 51.8189 11.7038 51.8189C11.7038 51.8189 12.0861 51.6858 12.2549 51.4696C12.5924 51.0358 12.7044 50.7867 12.8864 50.5164C13.0288 50.3041 13.1936 50.1341 13.3544 50.1802C13.5271 50.2303 13.3478 50.4386 13.1342 50.755C12.9523 51.0227 12.7466 51.4103 12.6899 51.6937C12.6148 52.0734 12.7295 52.258 12.7295 52.258C12.7295 52.258 13.1883 52.1841 13.3241 51.9758C13.4414 51.7978 13.6603 51.3457 13.8132 51.1347C13.9398 50.9594 14.0518 50.7366 14.2074 50.8289C14.2891 50.8776 14.2087 51.0622 14.036 51.343C13.9028 51.5592 13.7512 51.8453 13.6787 52.0853C13.6036 52.3331 13.7104 52.6073 13.7104 52.6073C13.7104 52.6073 14.0861 52.6245 14.239 52.3331C14.3669 52.0905 14.4803 51.8849 14.5726 51.7372C14.7703 51.4221 14.8916 51.6423 14.744 51.9191C14.5871 52.2131 14.4776 52.4096 14.4012 52.6957C14.3537 52.8736 14.4407 53.1123 14.4407 53.1123C14.4407 53.1123 14.6767 53.1281 14.8112 52.9567C15.0472 52.6561 15.0406 52.4373 15.179 52.5612C15.2779 52.6508 15.0498 52.9659 14.9259 53.1953C14.802 53.426 14.8573 53.6923 14.8573 53.6923C14.8573 53.6923 15.1487 53.7952 15.2752 53.5407C15.5046 53.0819 15.6114 53.2599 15.5495 53.4682C15.5297 53.5368 15.4361 53.8387 15.4163 53.9085C15.3069 54.279 15.5112 54.4372 15.5112 54.4372C15.5112 54.4372 15.7367 54.3607 15.8079 54.1103V54.1103Z" fill="#A1D65C"/>
<path d="M3.93738 54.5031C3.90046 54.4306 3.81741 54.2658 3.94133 54.2012C4.0824 54.1261 4.13513 54.3568 4.26433 54.4926C4.4845 54.722 4.68225 54.6165 4.68225 54.6165C4.68225 54.6165 4.82991 54.4056 4.70598 54.105C4.58601 53.815 4.32761 53.6132 4.43176 53.4761C4.48977 53.3997 4.6572 53.3417 4.88264 53.7701C5.09094 54.1656 5.42185 54.0918 5.42185 54.0918C5.42185 54.0918 5.65124 53.811 5.48645 53.3838C5.37175 53.0885 5.13313 52.8315 5.18455 52.6878C5.24651 52.5137 5.39944 52.5203 5.54841 52.7787C5.64202 52.9396 5.73562 53.1373 5.85427 53.2955C6.08367 53.604 6.41062 53.5803 6.41062 53.5803C6.41062 53.5803 6.58069 53.2902 6.44753 52.8671C6.3803 52.6535 6.31042 52.4821 6.15354 52.1815C6.07576 52.0338 5.93733 51.8308 6.0428 51.7082C6.14431 51.5909 6.29065 51.7385 6.41062 51.9192C6.6967 52.3503 6.70725 52.4768 6.85227 52.7062C7.06453 53.0398 7.52068 53.0266 7.52068 53.0266C7.52068 53.0266 7.69338 52.6878 7.62615 52.3516C7.54309 51.9429 7.44421 51.6502 7.20823 51.2797C7.10276 51.115 6.98279 50.9027 7.07903 50.8381C7.17131 50.7775 7.3137 50.8421 7.48376 51.1005C7.71448 51.4498 7.89377 51.79 8.05461 52.08C8.24314 52.4201 8.70325 52.4755 8.70325 52.4755C8.70325 52.4755 8.88782 52.2791 8.72566 51.6779C8.60173 51.2191 8.43035 50.9304 8.31829 50.7234C8.17986 50.4703 7.9386 50.3015 8.09285 50.2317C8.23523 50.1671 8.42244 50.3345 8.62678 50.6548C8.83772 50.9858 8.89045 51.2376 9.13699 51.579C9.3387 51.8598 9.81199 51.8163 9.81199 51.8163C9.81199 51.8163 9.8779 51.5474 9.82649 51.285C9.77375 51.0121 9.60632 50.697 9.34265 50.3951C8.75334 49.7201 8.37761 49.9996 8.3407 49.8731C8.32356 49.8137 8.35652 49.6318 8.2115 49.3813C8.0032 49.0227 7.49431 48.6852 6.91951 48.6905C6.68879 48.6931 6.27615 48.7643 6.09158 48.8935C6.09158 48.8935 6.11267 49.0952 6.36184 49.2047C6.65583 49.3352 7.24514 49.4499 7.49563 49.6819C7.66174 49.8348 7.76589 50.0141 7.58792 49.9416C7.51409 49.9113 7.26228 49.7333 6.99861 49.6397C6.72307 49.5422 6.4449 49.5 6.11399 49.4894C5.6196 49.4736 5.23464 49.6793 5.23464 49.6793C5.23464 49.6793 5.26101 49.8058 5.55237 49.9548C5.72771 50.0444 6.26956 50.1249 6.47654 50.2264C6.64661 50.3094 6.79822 50.3688 6.70198 50.465C6.64133 50.5256 6.54641 50.5059 6.46731 50.4755C6.10081 50.3332 5.53918 50.2607 5.23992 50.2488C4.82463 50.233 4.52668 50.5059 4.52668 50.5059C4.52668 50.5059 4.52405 50.7313 4.82595 50.8328C5.26365 50.9792 5.91096 50.9528 6.05862 51.1189C6.20232 51.2824 5.84373 51.3088 5.5115 51.2468C5.15159 51.1782 4.9657 51.1571 4.3342 51.2521C3.90706 51.3153 3.69084 51.6107 3.69084 51.6107C3.69084 51.6107 3.80554 51.8638 4.03625 51.8862C4.49636 51.9323 5.46404 51.8493 5.39285 52.0378C5.32825 52.2079 5.12654 52.1947 4.91956 52.1802C4.5425 52.1551 4.20764 52.1367 3.84773 52.2211C3.41531 52.3226 3.2637 52.6812 3.2637 52.6812C3.2637 52.6812 3.3718 52.8671 3.62756 52.871C4.0969 52.8789 4.68093 52.7168 4.79958 52.8235C4.96702 52.9752 4.58601 53.0318 4.38298 53.0411C4.12854 53.0529 3.66184 53.0872 3.40212 53.2151C3.05803 53.3838 3.02507 53.6502 3.02507 53.6502C3.02507 53.6502 3.10022 53.7873 3.45222 53.7609C3.54583 53.7543 3.88992 53.6436 4.02307 53.6686C4.23401 53.7095 4.05339 53.8374 3.82004 53.898C3.75149 53.9151 3.45881 53.9824 3.33093 54.0523C3.19778 54.1248 2.98289 54.1973 2.93542 54.606C2.93542 54.606 3.07913 54.6679 3.34675 54.5862C3.472 54.548 3.58274 54.4609 3.64734 54.5242C3.71062 54.5875 3.56033 54.7721 3.54319 54.9619C3.50627 55.3508 3.73303 55.5196 3.73303 55.5196C3.73303 55.5196 3.99011 55.3574 4.03362 55.0476C4.07581 54.7193 3.96638 54.5611 3.93738 54.5031V54.5031Z" fill="#A1D65C"/>
</g>
<g clip-path="url(#clip1)">
<path d="M25.0469 56.2401C27.1415 56.2401 28.8396 55.4569 28.8396 54.4906C28.8396 53.5244 27.1415 52.7411 25.0469 52.7411C22.9522 52.7411 21.2542 53.5244 21.2542 54.4906C21.2542 55.4569 22.9522 56.2401 25.0469 56.2401Z" fill="#D44A28"/>
<path d="M31.3705 49.605C31.3705 52.2355 28.5388 55.0974 25.0469 55.0974C21.555 55.0974 18.7233 52.2355 18.7233 49.605C18.7233 46.9744 31.3705 46.9744 31.3705 49.605Z" fill="#ED603A"/>
<path d="M25.0469 51.0148C28.5 51.0148 31.2993 50.1924 31.2993 49.178C31.2993 48.1636 28.5 47.3413 25.0469 47.3413C21.5938 47.3413 18.7945 48.1636 18.7945 49.178C18.7945 50.1924 21.5938 51.0148 25.0469 51.0148Z" fill="#FF8A65"/>
<path d="M30.3346 49.0534C30.3346 49.6354 28.3519 50.2797 25.0468 50.2797C21.7952 50.2797 19.7591 49.6354 19.7591 49.0534C19.7591 48.4714 22.1262 47.7791 25.0468 47.7791C27.9675 47.7791 30.3346 48.4732 30.3346 49.0534Z" fill="#5D4037"/>
<path opacity="0.18" d="M31.2922 49.2599C31.2957 49.2332 31.2993 49.2047 31.2993 49.178C31.2993 48.1636 28.4997 47.3413 25.0469 47.3413C21.5941 47.3413 18.7945 48.1636 18.7945 49.178C18.7945 49.2047 18.7981 49.2332 18.8016 49.2599C18.75 49.3703 18.7233 49.4859 18.7233 49.6052C18.7233 50.8137 19.2804 51.9474 20.1133 52.8711C20.2326 53.0028 21.8113 52.629 22.8275 52.0257C24.7764 50.8706 26.3301 50.2424 26.3301 50.2424C26.3301 50.2424 25.5951 50.2762 25.0451 50.2762C21.7935 50.2762 19.7574 49.6319 19.7574 49.0499C19.7574 48.4679 22.1245 47.7756 25.0451 47.7756C27.9658 47.7756 30.3329 48.4679 30.3329 49.0499C30.3329 49.4628 29.3308 49.9078 27.5671 50.1302C27.7308 50.1285 27.9907 50.1516 28.3039 50.2762C29.2597 50.6535 30.5447 52.2713 30.8899 51.5327C31.1907 50.8866 31.3687 50.3438 31.3687 49.6016C31.3705 49.4842 31.342 49.3685 31.2922 49.2599V49.2599Z" fill="#212121"/>
<path d="M28.8894 42.5355C28.8966 42.4839 28.9268 42.2258 28.5299 42.151C28.133 42.0763 27.8162 42.1066 27.8162 42.1066L27.5902 41.4641C27.7628 40.8803 28.0494 40.608 27.8055 40.0064C27.7486 39.8676 27.4442 39.7857 27.1933 39.8569C27.1933 39.8569 26.9441 39.8498 26.7288 40.0011C26.5437 40.1328 25.7641 40.7913 25.6306 40.4051C25.5755 40.2449 25.6556 40.1488 25.9955 39.905C26.2998 39.6878 26.638 39.5045 26.905 39.2411C27.3624 38.7873 27.0741 38.1501 27.0741 38.1501C27.0741 38.1501 26.711 38.013 26.4209 38.2337C26.2002 38.401 26.0275 38.4972 25.9243 38.5666C25.4206 38.9047 25.3886 38.4135 25.709 38.2231L26.3034 37.8226C26.9157 37.3972 26.6416 36.7102 26.6416 36.7102C26.6416 36.7102 26.4654 36.6551 26.234 36.8135C26.1521 36.8704 26.0649 36.947 25.9368 37.0093C25.7481 37.1 25.62 37.1481 25.547 37.0181C25.4972 36.9292 25.5879 36.8206 25.7624 36.696C25.9617 36.5554 26.0703 36.5323 26.2091 36.3347C26.4244 36.0304 26.3675 35.6459 26.3105 35.5641C26.2554 35.484 25.8264 35.9574 25.7481 35.7759C25.6876 35.6353 25.8798 35.379 25.6751 35.0159C25.5221 34.7454 25.2355 34.6226 25.2355 34.6226C25.0166 34.9144 24.9899 35.4074 25.1732 35.7278C25.2854 35.9236 25.4135 36.0998 25.2978 36.2066C25.216 36.2813 25.111 36.1781 24.9401 36.066C24.682 35.8987 24.3421 36.0304 24.3421 36.0304C24.3421 36.0304 24.1908 36.4682 24.424 36.7583C24.593 36.9701 24.7301 37.0502 24.9917 37.2709C25.2711 37.5058 25.1056 37.7728 24.7746 37.5966C24.6589 37.5343 24.4969 37.4061 24.3172 37.3278C24.0502 37.2104 23.6658 37.3901 23.6658 37.3901C23.6658 37.3901 23.5216 38.0469 23.8882 38.28C24.0128 38.3601 24.5325 38.7072 24.7087 38.7979C25.0736 38.9866 24.9864 39.4476 24.577 39.2536C24.2851 39.1147 23.9737 38.8816 23.6515 38.741C23.2244 38.5541 22.9378 38.7534 22.9378 38.7534C22.9378 38.7534 22.8097 39.3265 23.1389 39.6469C23.3561 39.8587 23.8829 40.204 24.0911 40.3286C24.2922 40.4478 24.6055 40.5795 24.5343 40.7272C24.3403 41.133 23.7156 40.8358 23.4362 40.6774C22.9414 40.3962 22.4199 40.1968 22.1263 40.4264C21.8308 40.6578 22.0462 41.3626 22.0355 41.6723C22.0106 42.3593 22.5908 42.3878 22.7937 42.9626C22.8328 43.0748 22.8239 43.1993 22.8168 43.3186C22.7688 44.1035 22.8328 44.8973 23.0037 45.6643C23.0233 45.7516 23.0482 45.8459 23.1158 45.9028C23.1817 45.9598 23.276 45.9705 23.3632 45.9776C24.2549 46.0559 25.1519 46.0951 26.0471 46.0951C26.7234 46.0951 27.4158 46.0684 28.0405 45.8103C28.1544 45.7622 28.2736 45.7017 28.3359 45.5949C28.3911 45.5024 27.9533 44.2921 28.0227 44.2103C28.4302 43.7279 28.8093 43.0748 28.8894 42.5355V42.5355Z" fill="url(#paint4_linear)"/>
<path d="M35.1917 41.2507C35.0866 41.2382 35.0155 41.2578 35.0671 41.1439C35.1311 40.9997 35.1472 40.9481 35.1721 40.8484C35.2326 40.5957 35.1365 40.4266 35.1365 40.4266C35.1365 40.4266 34.7948 40.4658 34.6381 40.7826C34.5563 40.9481 34.4388 41.3539 34.2413 41.2115C34.1594 41.151 34.2324 41.0513 34.243 40.8876C34.2679 40.5405 33.9956 40.4711 33.9956 40.4711C33.9956 40.4711 33.6593 40.569 33.5703 40.8769C33.4955 41.1385 33.4777 41.2809 33.4368 41.5212C33.3976 41.7526 33.4243 41.8665 33.2588 41.9092C33.1164 41.9466 33.0346 41.838 33.0524 41.6636C33.0755 41.4144 33.0773 41.1991 33.0773 41.1991C33.1289 40.8128 32.7338 40.7506 32.7338 40.7506C32.7338 40.7506 32.3209 40.7862 32.2105 41.2436C32.15 41.4981 32.134 41.6013 32.0788 41.9448C32.0521 42.1085 32.0503 42.3168 31.908 42.4414C31.7567 42.5731 31.5805 42.4556 31.5858 42.1708C31.5894 41.9608 31.6125 41.8309 31.5983 41.5212C31.584 41.2115 31.2512 41.1919 31.2512 41.1919C31.2512 41.1919 30.7369 41.4126 30.7173 41.943C30.703 42.3132 30.6941 42.9201 30.7048 43.0928C30.7048 43.0928 30.7564 43.4131 30.5055 43.511C30.3524 43.568 30.1762 43.4718 30.1673 43.1924C30.1549 42.8204 30.1655 42.7831 30.1442 42.3114C30.1246 41.87 29.7651 41.7437 29.7651 41.7437C29.7651 41.7437 29.2187 41.8042 29.1137 42.331C29.0514 42.6389 29.0567 43.9862 28.6118 43.972C28.0957 43.9542 27.0527 42.824 26.6967 44.1072C26.6362 44.3226 26.5099 44.5201 26.3283 44.6501C26.0916 44.8227 25.7926 44.8761 25.5096 44.9562C24.5752 45.2196 23.7619 45.8354 23.203 46.6221C22.9076 47.0385 21.9447 48.8201 22.5089 49.233C22.71 49.3807 23.3703 49.3273 23.6426 49.3273C24.246 49.3291 24.8475 49.3309 25.4509 49.3309C26.3301 49.3327 27.2075 49.3345 28.0868 49.338C28.1188 49.1529 28.1259 48.9732 28.1152 48.797L28.3519 48.7987L30.057 48.8646C30.057 48.8646 30.404 48.2061 30.7226 48.0637C30.7653 48.0441 31.39 47.5832 31.3705 47.5404C31.1213 46.9887 29.7224 46.4601 29.7224 46.4601C29.9484 46.4423 30.2794 46.186 30.8846 46.5135C31.6054 46.9033 32.0468 46.7253 32.0468 46.7253C32.0468 46.7253 32.207 46.485 31.7371 45.8852C31.4915 45.5702 30.4076 45.0149 30.4076 45.0149C30.2901 44.9348 29.9787 44.8547 30.1246 44.6251C30.2243 44.4667 30.6443 44.6038 31.0127 44.8049C31.3242 44.9758 31.2708 44.9953 31.9685 45.3816C32.4027 45.6218 33.0025 45.3816 33.0025 45.3816C33.0025 45.3816 33.0346 44.8387 32.6555 44.4934C32.3351 44.2016 31.5983 43.7602 31.5983 43.7602C31.4274 43.6142 31.4007 43.4968 31.5395 43.4202C31.7407 43.3117 31.9827 43.4629 32.2105 43.5786C32.4383 43.6943 33.063 44.0004 33.063 44.0004C33.4154 44.1927 33.9583 44.1321 33.9583 44.1321C33.9583 44.1321 34.0793 43.6979 33.9066 43.4914C33.6575 43.1924 32.9402 42.8738 32.9402 42.8738C32.7605 42.7421 32.7142 42.662 32.8156 42.5535C32.9171 42.4467 33.0096 42.4485 33.3104 42.5891C33.6272 42.7386 33.8728 42.8596 34.1576 42.9522C34.4424 43.0447 34.9656 42.8685 34.9656 42.8685C34.9656 42.8685 34.9496 42.4645 34.6826 42.2865C34.4762 42.1495 34.227 42.0498 34.227 42.0498C34.0882 42.0017 33.9796 41.8914 34.049 41.7615C34.1309 41.612 34.4477 41.7401 34.6488 41.7793C34.9425 41.8362 35.1027 41.8505 35.407 41.7401C35.6063 41.6671 35.7185 41.4625 35.7185 41.4625C35.7185 41.4625 35.6936 41.313 35.1917 41.2507V41.2507Z" fill="url(#paint5_radial)"/>
<path d="M28.3823 45.2623C28.1171 45.0345 27.7576 44.9117 27.4087 44.9508C27.2343 44.9704 27.0599 45.0256 26.8837 45.0114C26.7075 44.9953 26.5206 44.8761 26.5117 44.6999C26.5064 44.5842 26.5758 44.481 26.6363 44.3831C26.7947 44.1268 26.9104 43.8207 26.8392 43.5288C26.768 43.2369 26.4459 42.9966 26.1647 43.1034C25.8977 43.2049 25.8105 43.5306 25.7197 43.8011C25.5969 44.1695 25.4029 44.5148 25.1538 44.8138C25.0452 44.9437 24.885 45.0772 24.723 45.0256C24.4899 44.9544 24.9687 43.6285 24.4596 42.5392C24.3066 42.2135 24.1784 41.9181 24.0538 41.9181C23.8385 41.9181 23.7673 42.6496 23.7068 42.9148C23.6534 43.1515 23.5324 43.6053 23.3028 43.6374C23.1497 43.6587 22.9628 43.4131 22.9148 43.317C22.7546 43.0002 22.4503 42.2064 22.1085 42.0249C21.8469 41.8878 21.5372 42.0747 21.5372 42.5125C21.5372 42.6603 21.854 43.6409 22.0569 44.1855C22.121 44.3582 21.7793 44.4845 21.6102 44.1624C21.6102 44.1624 21.0887 43.2921 20.884 42.9984C20.5779 42.557 20.0226 42.6371 20.0226 42.6371C20.0226 42.6371 19.7984 43.002 19.9853 43.5341C20.1401 43.9791 20.1241 43.8616 20.2593 44.2087C20.3626 44.4703 20.238 44.6269 20.076 44.6358C19.8073 44.6447 19.7272 44.3315 19.7272 44.3315C19.6685 44.1695 19.4193 43.616 19.2591 43.2832C19.0295 42.8044 18.4707 42.8062 18.4707 42.8062C18.4707 42.8062 18.1717 42.9557 18.282 43.2458C18.3923 43.5359 18.4653 43.6463 18.5525 43.8367C18.6718 44.0965 18.5561 44.2745 18.3657 44.214C18.1877 44.1571 18.1022 43.9666 18.0115 43.826C17.8246 43.5324 17.7694 43.4451 17.611 43.2369C17.3298 42.8614 16.9347 42.9913 16.9347 42.9913C16.9347 42.9913 16.5965 43.2067 16.7977 43.5395C16.7977 43.5395 16.8849 43.7353 17.0059 43.9559C17.0895 44.109 17.0593 44.2407 16.9133 44.2638C16.7443 44.2905 16.7247 44.1749 16.5965 43.9791C16.4631 43.7762 16.3901 43.6516 16.2175 43.4416C16.0128 43.1942 15.6657 43.2387 15.6657 43.2387C15.6657 43.2387 15.445 43.4096 15.6052 43.7192C15.68 43.8652 15.7885 43.9275 15.7369 44.0147C15.6141 44.2247 15.3436 43.899 15.203 43.7797C14.9324 43.5519 14.6032 43.6516 14.6032 43.6516C14.6032 43.6516 14.5818 43.8474 14.7384 44.0538C14.8007 44.1357 14.8363 44.1766 14.952 44.2834C15.0446 44.3689 14.9716 44.3778 14.8808 44.4311C14.4448 44.6874 14.4839 44.8334 14.4839 44.8334C14.4839 44.8334 14.6673 44.9758 14.8791 44.9651C15.203 44.9473 15.3436 44.869 15.591 44.6999C15.76 44.5842 16.0003 44.3386 16.1338 44.4454C16.2495 44.5362 16.1943 44.6821 16.0857 44.7818C16.0857 44.7818 15.8971 44.9722 15.7618 45.1804C15.5874 45.4492 15.7333 45.8265 15.7333 45.8265C15.7333 45.8265 16.2851 45.7767 16.5076 45.5809C16.7318 45.3833 16.908 45.1733 17.1394 44.9117C17.3601 44.6625 17.4437 44.6234 17.579 44.6821C17.7142 44.7391 17.7036 44.8316 17.5914 45.0256C17.5914 45.0256 17.0593 45.604 16.9489 45.9778C16.8724 46.2358 17.1572 46.5865 17.1572 46.5865C17.1572 46.5865 17.6787 46.4263 17.926 46.1095C17.926 46.1095 18.3781 45.5791 18.5401 45.3833C18.7038 45.1876 18.8658 44.9508 19.0936 44.9722C19.2502 44.9864 19.2733 45.1057 19.1755 45.3068C19.1755 45.3068 18.6753 46.0045 18.4974 46.3996C18.2873 46.8659 18.5312 47.3518 18.5312 47.3518C18.5312 47.3518 19.179 47.3322 19.4798 46.9406C19.9657 46.307 19.9087 46.3106 20.1276 46.0312C20.3857 45.7001 20.7167 45.4065 20.8698 45.5115C21.0958 45.6663 20.8413 45.8621 20.7648 45.9831C20.7648 45.9831 20.0315 46.9371 19.8909 47.3108C19.6827 47.8608 19.9141 48.457 19.9141 48.457C19.9141 48.457 20.5548 48.4036 21.062 47.8021C21.151 47.6971 21.2275 47.6027 21.2987 47.5173L21.701 47.786C21.5105 48.1224 21.3699 48.4677 21.2364 48.8877C21.5604 48.7792 23.1017 49.3256 23.1017 49.3256L28.0851 49.338C28.1171 49.1529 28.1242 48.9732 28.1135 48.797L28.3502 48.7987L30.0553 48.8646C30.0553 48.8646 30.4023 48.2061 30.7209 48.0637C30.7636 48.0441 30.7761 47.9925 30.7458 47.9569C30.4717 47.6472 30.1443 47.2699 29.7723 47.0741C29.4502 46.905 29.112 46.962 28.9358 46.558C28.7507 46.1362 28.8148 45.7073 28.4766 45.3531C28.4481 45.321 28.4161 45.2908 28.3823 45.2623V45.2623Z" fill="url(#paint6_radial)"/>
<path d="M26.9957 44.385C26.8035 44.28 26.7287 44.1322 26.8676 44.0219C26.9299 43.9721 27.1755 44.0717 27.6275 44.1945C28.2113 44.3529 28.5601 44.4526 28.9286 44.4366C29.6743 44.4063 29.7811 43.7603 29.7811 43.7603C29.7811 43.7603 29.6903 43.488 28.9962 43.4399C28.7274 43.4221 28.2469 43.3224 27.8625 43.2121C27.5065 43.1107 27.2093 42.9184 27.3873 42.7458C27.494 42.6426 27.713 42.7387 27.9568 42.7814C28.4907 42.8757 28.9268 42.9807 29.2632 42.9896C29.9715 43.0092 30.2136 42.5607 30.2136 42.5607C30.2136 42.5607 30.121 42.1442 29.5746 42.009C29.2827 41.936 28.9624 41.8897 28.3768 41.7651C28.0369 41.6939 28.0582 41.5889 28.1597 41.4982C28.2967 41.3754 28.5779 41.4056 28.7506 41.4199C29.167 41.4572 29.6885 41.5818 29.9751 41.5996C30.4698 41.6299 30.7261 41.2597 30.7261 41.2597C30.7261 41.2597 30.7083 40.8379 30.2278 40.6866C29.7722 40.5424 29.6636 40.6029 29.3059 40.4712C29.0781 40.3876 28.998 40.2915 29.0887 40.2096C29.1724 40.1348 29.3521 40.1331 29.6992 40.1615C30.1637 40.1989 30.525 40.2808 30.8774 40.3128C31.4843 40.368 31.6587 39.9818 31.6587 39.9818C31.6587 39.9818 31.6036 39.6525 31.1729 39.5208C30.9664 39.4568 30.7404 39.4336 30.3862 39.3304C30.2438 39.2895 30.2207 39.2111 30.2794 39.1186C30.3381 39.0278 30.5001 39.0082 30.7279 39.0314C31.123 39.0723 31.2636 39.1061 31.5413 39.1488C32.093 39.2361 32.3689 38.994 32.3689 38.994C32.3689 38.994 32.4347 38.6647 32.1197 38.5526C31.8296 38.4494 31.6285 38.4405 31.4185 38.3853C31.2085 38.3301 31.2334 38.2412 31.3028 38.1913C31.5413 38.0187 32.2567 38.2892 32.5024 38.3159C32.9206 38.3622 33.1484 38.1166 33.1484 38.1166C33.1484 38.1166 33.2125 37.8087 32.9099 37.7037C32.6679 37.62 32.4454 37.6111 32.5771 37.4901C32.6412 37.4314 32.8637 37.4118 32.9793 37.4207C33.3317 37.4456 33.467 37.483 33.6361 37.4385C33.7945 37.3975 34.0045 37.2445 34.122 37.1288C33.8657 36.9597 33.5702 36.9117 33.2712 36.8654C32.9384 36.8138 32.7515 37.1929 32.586 37.1395C32.5041 37.1128 32.6875 36.8262 32.4988 36.8458C32.3867 36.8583 32.1446 36.917 32.0503 37.1875C31.9666 37.426 31.9506 37.7784 31.7086 37.7304C31.5591 37.7019 31.6196 37.5328 31.6409 37.4136C31.6997 37.0932 31.5609 37.0434 31.5609 37.0434C31.5609 37.0434 31.0643 37.0345 30.897 37.5559C30.808 37.8318 30.7582 38.3141 30.5304 38.307C30.3364 38.3017 30.4129 38.0792 30.4093 37.8852C30.404 37.5755 30.1174 37.5381 30.1174 37.5381C30.1174 37.5381 29.6422 37.6325 29.6155 38.0329C29.6049 38.186 29.5977 38.4761 29.5977 38.816C29.5977 39.1061 29.5248 39.3357 29.4144 39.3856C29.2009 39.4834 29.1937 39.2094 29.1759 38.9246C29.1581 38.6416 29.167 38.4796 29.1225 38.3568C29.0567 38.1789 28.6918 38.1949 28.6918 38.1949C28.6918 38.1949 28.2932 38.4957 28.3092 38.8231C28.3216 39.0794 28.3626 39.4621 28.3893 39.6152C28.4355 39.8839 28.432 40.2488 28.2736 40.3911C28.1187 40.53 28.0084 40.0993 27.8909 39.4585C27.7859 38.8819 27.3445 38.9549 27.3445 38.9549C27.3445 38.9549 26.9227 39.2717 26.9886 39.77C27.0366 40.1402 27.1167 40.4089 27.1844 40.6296C27.3517 41.1778 27.3784 41.3754 27.3267 41.4999C27.1203 41.9983 26.8676 41.1636 26.6433 40.4819C26.4885 40.0103 26.072 40.0654 26.072 40.0654C26.072 40.0654 25.7054 40.4125 25.7872 40.8414C25.9225 41.5551 26.161 41.9573 26.3158 42.2208C26.6042 42.7155 26.6647 42.9345 26.6113 43.0644C26.5525 43.205 26.2838 43.0626 26.0738 42.7155C25.8495 42.34 25.7499 42.114 25.5897 41.653C25.4526 41.2615 25.2978 41.3113 25.2978 41.3113C25.2978 41.3113 24.9578 41.7972 25.1251 42.3418C25.4597 43.4275 26.1254 43.9614 26.1877 44.0219C26.3372 44.1643 26.1307 44.175 25.8371 44.0379C25.5167 43.8884 25.0771 43.0751 25.0771 43.0751C25.0771 43.0751 24.9436 43.504 25.1963 44.0628C25.49 44.7107 25.9296 44.789 26.2019 44.8566C26.5205 44.9367 26.638 44.8869 26.7981 45.0827C27.4638 45.9049 28.4302 45.775 28.5922 45.775C29.3806 45.775 29.4678 45.2233 29.4678 45.2233C29.4678 45.2233 29.3504 44.9741 28.8342 44.8851C28.6295 44.8495 28.4142 44.8709 27.7521 44.6786C27.5243 44.6163 27.2146 44.5042 26.9957 44.385V44.385Z" fill="#73B03E"/>
<path d="M24.2513 40.626C24.2513 40.626 23.8295 40.8004 23.7725 41.1421C23.7031 41.4892 23.6889 42.5144 23.5073 42.9184C23.3881 43.1818 23.1781 43.0163 23.26 42.5873C23.365 42.0427 23.4913 41.3486 23.4077 40.7737C23.3383 40.3003 22.936 40.0031 22.936 40.0031C22.936 40.0031 22.532 40.06 22.4893 40.3092C22.4181 40.7275 22.4395 41.0959 22.4146 41.3771C22.3968 41.5729 22.3985 41.9235 22.1511 41.8576C21.9927 41.8167 22.0372 41.3397 22.0426 41.1955C22.0533 40.8592 22.1138 40.7008 22.1084 40.0618C22.1031 39.5475 21.5496 39.2663 21.5496 39.2663C21.5496 39.2663 21.231 39.3499 21.1812 39.6631C21.1064 40.1401 21.1562 40.6652 20.8661 40.5744C20.6775 40.5157 20.8234 39.761 20.77 39.3659C20.7166 38.9601 20.3518 38.7216 20.3518 38.7216C20.3518 38.7216 20.0047 38.7305 19.978 39.0972C19.9549 39.4318 20.0047 39.9052 19.7057 39.9159C19.4103 39.9266 19.5633 39.4211 19.4779 38.8391C19.4156 38.4155 18.944 38.25 18.944 38.25C18.944 38.25 18.572 38.3087 18.5756 38.6077C18.5773 38.7216 18.556 39.0206 18.3691 38.9815C18.2 38.9459 18.1288 38.7038 18.0879 38.565C18.0363 38.3942 17.9953 38.2785 17.8601 38.1486C17.7035 37.9973 17.255 37.8567 17.2389 37.8638C17.2122 37.8762 17.1731 38.2447 17.2283 38.3906C17.3101 38.6113 17.4614 38.7305 17.5949 38.9103C17.764 39.1363 17.5006 39.0972 17.319 39.2111C17.1037 39.3463 17.0521 39.5902 17.0521 39.5902C17.0521 39.5902 17.3012 39.802 17.5557 39.8198C17.7978 39.8376 18.0238 39.7628 18.2445 39.697C18.5293 39.6098 18.8034 39.5421 18.8941 39.6756C19.033 39.8767 18.5595 39.8892 18.2249 40.1633C18.0167 40.3341 17.9953 40.6225 17.9953 40.6225C17.9953 40.6225 18.5168 40.9642 18.7785 40.8716C19.2857 40.6901 19.4655 40.5388 19.7093 40.4605C19.9887 40.3697 20.3002 40.5139 19.978 40.7399C19.7467 40.9037 19.4619 41.0621 19.275 41.2507C19.0454 41.4803 19.065 41.7847 19.065 41.7847C19.065 41.7847 19.4405 42.0676 19.7538 41.9964C20.2699 41.879 20.5903 41.6298 20.8644 41.4999C21.1936 41.345 21.3289 41.3842 21.441 41.475C21.562 41.5746 21.3307 41.6743 21.0423 41.822C20.7095 41.9929 20.3429 42.2954 20.2058 42.4432C20.0279 42.6354 20.0457 43.3153 20.0457 43.3153C20.0457 43.3153 20.6045 43.5217 21.0708 43.3064C21.562 43.0803 22.0782 42.5624 22.2971 42.6407C22.6352 42.76 22.379 42.9504 21.8966 43.3384C21.53 43.6338 21.2114 43.8474 20.9818 44.1037C20.7665 44.344 20.7789 44.9598 20.7789 44.9598C20.7789 44.9598 21.0601 45.1271 21.4766 45.0915C22.0105 45.047 22.6993 44.1393 22.9609 43.8955C23.1318 43.7371 23.292 43.9471 23.0001 44.4881C22.5498 45.3246 22.3398 45.3211 22.1138 45.9636C21.9394 46.4637 22.233 46.946 22.233 46.946C22.233 46.946 22.694 47.0635 23.0072 46.8428C23.2564 46.6684 23.4362 46.3284 23.6159 45.8426C23.6586 45.7287 23.7441 45.4546 23.7352 44.7427C23.7298 44.2141 23.6337 44.3547 23.9096 43.8812C24.5539 42.776 24.7443 42.2759 24.6553 41.4394C24.6037 40.9339 24.2513 40.626 24.2513 40.626V40.626Z" fill="#73B03E"/>
<path d="M26.8783 45.7233C26.8783 45.7233 25.9475 45.9973 25.6378 46.2643C25.3281 46.5331 24.9828 47.0065 24.6126 47.14C24.2425 47.2735 23.9826 47.2414 23.9826 47.2414C23.9826 47.2414 24.1962 46.3996 24.7693 45.9902C25.3477 45.5755 26.2162 45.3958 26.8783 45.7233Z" fill="#A1D65C"/>
<path d="M21.5389 47.9034H30.3346V49.4519H21.5389V47.9034Z" fill="url(#paint7_linear)"/>
<path d="M33.6468 53.0988C33.6877 52.9529 33.6663 52.7589 33.6717 52.4652C33.6752 52.2943 33.7749 52.2908 34.065 52.5844C34.1932 52.7144 34.4299 52.7357 34.4299 52.7357C34.4584 52.1911 34.2234 52.0309 33.8479 51.8191C33.5168 51.634 33.1947 51.5664 33.3424 51.3599C33.3905 51.2923 33.613 51.4009 33.7269 51.4454C34.3978 51.7106 34.4566 51.5059 34.4566 51.5059C34.4566 51.5059 34.4121 50.9862 33.7322 50.7477C33.4047 50.6338 32.8476 50.5519 32.8548 50.3864C32.8619 50.1693 33.1716 50.2511 33.3531 50.2956C34.2715 50.5163 34.3551 50.3757 34.3551 50.3757C34.3551 50.3757 34.1682 49.6229 33.3033 49.4734C32.8761 49.4004 32.1144 49.3328 32.077 49.1299C32.0378 48.9145 32.8672 49.0373 33.1983 49.0907C33.6592 49.1655 33.7927 49.0462 33.7927 49.0462C33.7927 49.0462 33.5934 48.3432 32.6181 48.2596C31.899 48.199 31.4309 48.2952 31.3153 48.1136C31.212 47.9481 31.8759 47.9072 32.5166 47.9552C33.0203 47.9926 33.2926 47.9801 33.2926 47.9801C33.2926 47.9801 33.1004 47.2664 32.045 47.1935C30.9949 47.1205 30.0267 47.3981 30.1477 47.1917C30.2759 46.9746 30.6977 46.9407 31.2316 46.914C31.5039 46.9016 31.8403 46.9105 32.0183 46.8873C32.4347 46.834 32.5629 46.6649 32.5629 46.6649C32.5629 46.6649 32.1215 46.2502 31.4808 46.1381C30.9166 46.0402 30.4432 46.1185 29.7793 46.2751C29.4144 46.3605 28.9766 46.4851 28.8538 46.3819C28.7737 46.316 29.0852 46.1238 29.4162 46.0437C29.6903 45.9779 30.2153 45.928 30.582 45.8978C30.8134 45.88 30.9629 45.8035 30.9629 45.8035C30.9629 45.8035 30.8667 45.7251 30.6941 45.6379C30.3737 45.476 29.8291 45.3318 29.3005 45.4386C28.982 45.5027 28.7417 45.5614 28.489 45.7554C28.2291 45.9547 28.0814 46.1398 27.7646 46.1292C27.4478 46.1203 27.2662 45.9903 26.6967 46.1808C26.4493 46.2644 25.951 46.6239 25.5576 47.0778C25.1483 47.5512 25.2337 47.9926 25.2337 47.9926C25.2337 47.9926 25.6644 48.1207 26.0987 47.8787C26.7092 47.5387 27.4389 46.5634 27.7503 46.599C28.1223 46.6417 27.608 47.0155 27.3659 47.2753C26.8195 47.8591 26.565 48.3788 26.492 48.8166C26.4262 49.2135 26.5828 49.4057 26.5828 49.4057C26.5828 49.4057 27.1399 49.3257 27.3784 48.9964C27.7236 48.5176 28.0921 48.0673 28.3323 47.7345C28.6278 47.3252 28.7986 47.1917 28.9481 47.1276C29.24 47.003 29.4732 47.0885 29.0514 47.5708C28.5477 48.1457 28.117 48.7757 28.0049 49.2189C27.8963 49.6442 28.1063 50.0055 28.1063 50.0055C28.1063 50.0055 28.6224 49.8258 28.8502 49.5339C29.3059 48.9483 29.4572 48.612 29.7028 48.2471C29.895 47.9606 30.1175 47.731 30.3346 47.7933C30.5677 47.8609 30.3257 48.1421 30.0374 48.5692C29.7918 48.9305 29.5141 49.4538 29.4376 49.8365C29.3361 50.349 29.491 50.5982 29.491 50.5982C29.491 50.5982 30.1103 50.4985 30.2937 50.2173C30.4521 49.9771 30.7475 49.3666 30.954 49.0818C31.1248 48.8451 31.2761 48.5443 31.4861 48.6689C31.5965 48.7348 31.4879 48.9839 31.2547 49.363C31.075 49.6549 30.8703 50.0411 30.7724 50.365C30.671 50.6996 30.8151 51.0698 30.8151 51.0698C30.8151 51.0698 31.3224 51.093 31.5288 50.6996C31.7015 50.3722 31.8545 50.0945 31.9791 49.8952C32.2461 49.4698 32.4098 49.767 32.2105 50.1408C31.9987 50.5377 31.851 50.8029 31.7477 51.1891C31.6837 51.4294 31.8011 51.7515 31.8011 51.7515C31.8011 51.7515 32.1197 51.7729 32.3013 51.5415C32.6198 51.1357 32.6109 50.8402 32.7978 51.0075C32.9313 51.1286 32.6234 51.5539 32.4561 51.8636C32.2888 52.1751 32.3635 52.5346 32.3635 52.5346C32.3635 52.5346 32.7569 52.6734 32.9277 52.3299C33.2374 51.7106 33.3816 51.9508 33.2979 52.232C33.2712 52.3246 33.1449 52.7322 33.1182 52.8265C32.9705 53.3266 33.2463 53.5402 33.2463 53.5402C33.2463 53.5402 33.5507 53.437 33.6468 53.0988V53.0988Z" fill="#A1D65C"/>
<path d="M17.6217 53.6291C17.5718 53.5312 17.4597 53.3088 17.627 53.2216C17.8175 53.1201 17.8886 53.4316 18.0631 53.6149C18.3603 53.9246 18.6273 53.7822 18.6273 53.7822C18.6273 53.7822 18.8266 53.4974 18.6593 53.0916C18.4973 52.7001 18.1485 52.4278 18.2891 52.2427C18.3674 52.1395 18.5934 52.0611 18.8978 52.6396C19.179 53.1735 19.6257 53.0738 19.6257 53.0738C19.6257 53.0738 19.9354 52.6948 19.7129 52.1181C19.5581 51.7194 19.2359 51.3724 19.3054 51.1784C19.389 50.9434 19.5955 50.9523 19.7966 51.3012C19.9229 51.5183 20.0493 51.7853 20.2095 51.9989C20.5192 52.4153 20.9606 52.3833 20.9606 52.3833C20.9606 52.3833 21.1901 51.9917 21.0104 51.4204C20.9196 51.1321 20.8253 50.9007 20.6135 50.4949C20.5085 50.2956 20.3216 50.0215 20.464 49.856C20.601 49.6976 20.7986 49.8969 20.9606 50.1408C21.3468 50.7227 21.361 50.8936 21.5568 51.2033C21.8433 51.6536 22.4591 51.6358 22.4591 51.6358C22.4591 51.6358 22.6923 51.1784 22.6015 50.7245C22.4894 50.1728 22.3559 49.7777 22.0373 49.2776C21.8949 49.0551 21.733 48.7685 21.8629 48.6813C21.9875 48.5995 22.1797 48.6867 22.4093 49.0355C22.7208 49.5072 22.9628 49.9663 23.1799 50.3579C23.4345 50.8171 24.0556 50.8918 24.0556 50.8918C24.0556 50.8918 24.3048 50.6266 24.0859 49.8151C23.9186 49.1957 23.6872 48.8059 23.5359 48.5265C23.349 48.1848 23.0233 47.957 23.2316 47.8626C23.4238 47.7754 23.6765 48.0015 23.9524 48.4339C24.2371 48.8807 24.3083 49.2206 24.6412 49.6816C24.9135 50.0607 25.5524 50.0019 25.5524 50.0019C25.5524 50.0019 25.6414 49.6389 25.572 49.2847C25.5008 48.9163 25.2748 48.4909 24.9188 48.0833C24.1232 47.1721 23.616 47.5494 23.5662 47.3785C23.543 47.2984 23.5875 47.0528 23.3917 46.7147C23.1105 46.2306 22.4235 45.7749 21.6476 45.7821C21.3361 45.7856 20.779 45.8817 20.5298 46.0562C20.5298 46.0562 20.5583 46.3285 20.8947 46.4762C21.2916 46.6524 22.0872 46.8072 22.4253 47.1205C22.6496 47.3269 22.7902 47.569 22.5499 47.4711C22.4502 47.4301 22.1103 47.1899 21.7543 47.0635C21.3824 46.9318 21.0068 46.8749 20.5601 46.8606C19.8927 46.8393 19.373 47.1169 19.373 47.1169C19.373 47.1169 19.4086 47.2878 19.8019 47.4889C20.0386 47.6099 20.7701 47.7185 21.0495 47.8555C21.2791 47.9676 21.4838 48.0477 21.3539 48.1777C21.272 48.2595 21.1439 48.2328 21.0371 48.1919C20.5423 47.9997 19.7841 47.9018 19.3801 47.8858C18.8195 47.8644 18.4172 48.2328 18.4172 48.2328C18.4172 48.2328 18.4137 48.5372 18.8213 48.6742C19.4121 48.8718 20.286 48.8362 20.4854 49.0604C20.6793 49.2811 20.1952 49.3167 19.7467 49.2331C19.2609 49.1405 19.0099 49.112 18.1574 49.2402C17.5807 49.3256 17.2889 49.7243 17.2889 49.7243C17.2889 49.7243 17.4437 50.066 17.7552 50.0963C18.3763 50.1586 19.6827 50.0464 19.5866 50.3009C19.4994 50.5305 19.227 50.5127 18.9476 50.4932C18.4386 50.4593 17.9865 50.4344 17.5007 50.5483C16.9169 50.6854 16.7122 51.1695 16.7122 51.1695C16.7122 51.1695 16.8582 51.4204 17.2034 51.4258C17.837 51.4364 18.6255 51.2175 18.7857 51.3617C19.0117 51.5664 18.4973 51.6429 18.2232 51.6554C17.8797 51.6714 17.2497 51.7176 16.8991 51.8903C16.4346 52.1181 16.3901 52.4776 16.3901 52.4776C16.3901 52.4776 16.4915 52.6627 16.9667 52.6271C17.0931 52.6182 17.5576 52.4687 17.7374 52.5025C18.0221 52.5577 17.7783 52.7303 17.4633 52.8122C17.3707 52.8354 16.9756 52.9261 16.803 53.0205C16.6232 53.1183 16.3331 53.2162 16.269 53.768C16.269 53.768 16.463 53.8516 16.8243 53.7413C16.9934 53.6897 17.1429 53.5722 17.2301 53.6576C17.3156 53.743 17.1127 53.9922 17.0895 54.2485C17.0397 54.7735 17.3458 55.0014 17.3458 55.0014C17.3458 55.0014 17.6929 54.7824 17.7516 54.3642C17.8086 53.921 17.6608 53.7074 17.6217 53.6291V53.6291Z" fill="#A1D65C"/>
</g>
<path fill-rule="evenodd" clip-rule="evenodd" d="M19.6947 5.54113C20.1386 3.21839 21.6789 2 23.7525 2C25.8244 2 27.3708 3.214 27.8191 5.53236C28.234 5.54289 28.5638 5.80779 28.5638 6.13761V7.75774L30.4523 5.98498L30.4558 5.98323C30.1804 5.49991 30.1181 5.04027 30.3497 4.80256C30.6918 4.45344 31.5286 4.71572 32.2189 5.3885C32.9093 6.06393 33.1935 6.89285 32.8531 7.24196C32.6198 7.48143 32.154 7.42968 31.6646 7.16126L28.5647 12.5129V14.4926C28.5647 14.8277 28.2226 15.0996 27.7989 15.0996H19.7658C19.3421 15.0996 19 14.8268 19 14.4926V6.13761C18.9983 5.8227 19.3053 5.57096 19.6947 5.54113ZM23.7648 2.8491C22.1999 2.8491 21.0789 3.67188 20.7193 5.48061H26.8594C26.4998 3.67188 25.3297 2.8491 23.7657 2.8491H23.7648Z" fill="#71A0BA"/>
<path d="M45.7188 56.0994C48.2013 56.0994 50.2139 55.1711 50.2139 54.0259C50.2139 52.8807 48.2013 51.9524 45.7188 51.9524C43.2362 51.9524 41.2237 52.8807 41.2237 54.0259C41.2237 55.1711 43.2362 56.0994 45.7188 56.0994Z" fill="#D44A28"/>
<path d="M53.2134 48.2356C53.2134 51.3532 49.8574 54.7451 45.7188 54.7451C41.5802 54.7451 38.2242 51.3532 38.2242 48.2356C38.2242 45.1179 53.2134 45.1179 53.2134 48.2356Z" fill="#ED603A"/>
<path d="M45.7188 49.9064C49.8113 49.9064 53.129 48.9317 53.129 47.7295C53.129 46.5272 49.8113 45.5526 45.7188 45.5526C41.6262 45.5526 38.3085 46.5272 38.3085 47.7295C38.3085 48.9317 41.6262 49.9064 45.7188 49.9064Z" fill="#FF8A65"/>
<path d="M51.9857 47.5817C51.9857 48.2715 49.6358 49.0351 45.7187 49.0351C41.8649 49.0351 39.4518 48.2715 39.4518 47.5817C39.4518 46.892 42.2573 46.0714 45.7187 46.0714C49.1802 46.0714 51.9857 46.8941 51.9857 47.5817Z" fill="#5D4037"/>
<path opacity="0.18" d="M53.1206 47.8265C53.1248 47.7949 53.129 47.7611 53.129 47.7295C53.129 46.5271 49.811 45.5526 45.7188 45.5526C41.6266 45.5526 38.3086 46.5271 38.3086 47.7295C38.3086 47.7611 38.3128 47.7949 38.317 47.8265C38.2558 47.9573 38.2242 48.0944 38.2242 48.2357C38.2242 49.668 38.8844 51.0117 39.8716 52.1064C40.0129 52.2625 41.8839 51.8196 43.0884 51.1045C45.3982 49.7355 47.2396 48.9909 47.2396 48.9909C47.2396 48.9909 46.3685 49.031 45.7167 49.031C41.8629 49.031 39.4497 48.2674 39.4497 47.5776C39.4497 46.8878 42.2552 46.0673 45.7167 46.0673C49.1782 46.0673 51.9836 46.8878 51.9836 47.5776C51.9836 48.067 50.7961 48.5943 48.7057 48.858C48.8997 48.8559 49.2077 48.8833 49.5789 49.031C50.7117 49.4782 52.2346 51.3956 52.6439 50.5202C53.0004 49.7545 53.2113 49.1111 53.2113 48.2315C53.2134 48.0923 53.1796 47.9552 53.1206 47.8265V47.8265Z" fill="#212121"/>
<path d="M50.2729 39.8569C50.2813 39.7957 50.3172 39.4899 49.8468 39.4013C49.3764 39.3127 49.0009 39.3486 49.0009 39.3486L48.733 38.5871C48.9376 37.8952 49.2772 37.5725 48.9883 36.8595C48.9208 36.695 48.56 36.5979 48.2626 36.6823C48.2626 36.6823 47.9673 36.6739 47.7121 36.8532C47.4927 37.0093 46.5688 37.7897 46.4106 37.332C46.3452 37.1422 46.4401 37.0282 46.843 36.7393C47.2037 36.4819 47.6045 36.2647 47.9209 35.9525C48.463 35.4146 48.1213 34.6594 48.1213 34.6594C48.1213 34.6594 47.691 34.497 47.3472 34.7586C47.0856 34.9568 46.881 35.0707 46.7586 35.153C46.1617 35.5538 46.1237 34.9716 46.5034 34.7459L47.2079 34.2713C47.9336 33.7672 47.6087 32.9529 47.6087 32.9529C47.6087 32.9529 47.3999 32.8875 47.1257 33.0753C47.0286 33.1428 46.9253 33.2335 46.7734 33.3073C46.5498 33.4149 46.3979 33.4718 46.3115 33.3179C46.2524 33.2124 46.36 33.0837 46.5667 32.9361C46.8029 32.7694 46.9316 32.742 47.0961 32.5079C47.3514 32.1472 47.2839 31.6915 47.2164 31.5945C47.151 31.4996 46.6426 32.0607 46.5498 31.8455C46.4781 31.6789 46.7059 31.3751 46.4633 30.9448C46.2819 30.6242 45.9423 30.4786 45.9423 30.4786C45.6829 30.8246 45.6512 31.4089 45.8685 31.7886C46.0014 32.0206 46.1533 32.2294 46.0161 32.356C45.9191 32.4446 45.7947 32.3222 45.5922 32.1893C45.2863 31.9911 44.8834 32.1472 44.8834 32.1472C44.8834 32.1472 44.7041 32.6661 44.9804 33.0099C45.1808 33.2609 45.3433 33.3558 45.6533 33.6174C45.9845 33.8958 45.7883 34.2122 45.396 34.0034C45.2589 33.9296 45.0669 33.7777 44.8539 33.6849C44.5375 33.5457 44.0818 33.7587 44.0818 33.7587C44.0818 33.7587 43.911 34.5371 44.3455 34.8134C44.4932 34.9083 45.1091 35.3197 45.3179 35.4272C45.7504 35.6508 45.647 36.1972 45.1618 35.9672C44.8159 35.8027 44.4468 35.5264 44.065 35.3597C43.5587 35.1382 43.2191 35.3745 43.2191 35.3745C43.2191 35.3745 43.0672 36.0537 43.4575 36.4334C43.7148 36.6844 44.3392 37.0936 44.586 37.2413C44.8243 37.3826 45.1956 37.5387 45.1112 37.7138C44.8813 38.1947 44.1409 37.8425 43.8097 37.6547C43.2233 37.3215 42.6053 37.0852 42.2572 37.3573C41.9071 37.6315 42.1623 38.4668 42.1497 38.8339C42.1201 39.6481 42.8078 39.6818 43.0483 40.3632C43.0947 40.4961 43.0841 40.6437 43.0757 40.785C43.0187 41.7153 43.0947 42.6561 43.2972 43.5652C43.3204 43.6686 43.3499 43.7804 43.4301 43.8479C43.5081 43.9154 43.6199 43.928 43.7233 43.9365C44.7801 44.0293 45.8432 44.0757 46.9042 44.0757C47.7058 44.0757 48.5263 44.044 49.2667 43.7382C49.4017 43.6812 49.543 43.6095 49.6168 43.4829C49.6822 43.3732 49.1633 41.9389 49.2456 41.8418C49.7286 41.2702 50.1779 40.4961 50.2729 39.8569V39.8569Z" fill="url(#paint8_linear)"/>
<path d="M57.7422 38.3342C57.6178 38.3194 57.5334 38.3426 57.5946 38.2076C57.6705 38.0368 57.6895 37.9756 57.719 37.8575C57.7907 37.5579 57.6768 37.3575 57.6768 37.3575C57.6768 37.3575 57.2718 37.404 57.0862 37.7794C56.9892 37.9756 56.8499 38.4565 56.6158 38.2878C56.5188 38.2161 56.6053 38.0979 56.6179 37.9039C56.6474 37.4925 56.3247 37.4103 56.3247 37.4103C56.3247 37.4103 55.926 37.5263 55.8206 37.8912C55.732 38.2013 55.7109 38.37 55.6624 38.6548C55.616 38.929 55.6476 39.064 55.4514 39.1147C55.2827 39.1589 55.1857 39.0303 55.2067 38.8236C55.2342 38.5282 55.2363 38.273 55.2363 38.273C55.2974 37.8153 54.8292 37.7415 54.8292 37.7415C54.8292 37.7415 54.3398 37.7836 54.209 38.3257C54.1373 38.6274 54.1183 38.7497 54.0529 39.1568C54.0213 39.3509 54.0192 39.5977 53.8504 39.7454C53.6711 39.9015 53.4623 39.7622 53.4686 39.4247C53.4728 39.1758 53.5003 39.0218 53.4834 38.6548C53.4665 38.2878 53.0721 38.2646 53.0721 38.2646C53.0721 38.2646 52.4624 38.5261 52.4392 39.1547C52.4224 39.5935 52.4118 40.3128 52.4245 40.5174C52.4245 40.5174 52.4857 40.8971 52.1882 41.0131C52.0068 41.0806 51.798 40.9667 51.7874 40.6355C51.7727 40.1947 51.7853 40.1504 51.76 39.5914C51.7368 39.0682 51.3107 38.9185 51.3107 38.9185C51.3107 38.9185 50.6632 38.9902 50.5387 39.6146C50.4649 39.9795 50.4712 41.5763 49.9439 41.5594C49.3321 41.5383 48.096 40.1989 47.6742 41.7197C47.6024 41.975 47.4527 42.2091 47.2375 42.3631C46.957 42.5677 46.6026 42.631 46.2672 42.7259C45.1598 43.0381 44.1958 43.7679 43.5335 44.7003C43.1833 45.1939 42.0421 47.3054 42.7108 47.7947C42.9492 47.9698 43.7317 47.9065 44.0545 47.9065C44.7696 47.9086 45.4825 47.9107 46.1976 47.9107C47.2396 47.9129 48.2796 47.915 49.3216 47.9192C49.3596 47.6998 49.368 47.4868 49.3553 47.2779L49.6359 47.28L51.6567 47.3581C51.6567 47.3581 52.068 46.5776 52.4456 46.4089C52.4962 46.3857 53.2366 45.8393 53.2134 45.7887C52.9181 45.1348 51.2601 44.5083 51.2601 44.5083C51.528 44.4872 51.9203 44.1835 52.6375 44.5716C53.4918 45.0336 54.0149 44.8226 54.0149 44.8226C54.0149 44.8226 54.2048 44.5379 53.6479 43.827C53.3568 43.4536 52.0722 42.7955 52.0722 42.7955C51.933 42.7006 51.5639 42.6057 51.7368 42.3336C51.8549 42.1458 52.3528 42.3082 52.7894 42.5466C53.1585 42.7491 53.0953 42.7723 53.9221 43.23C54.4368 43.5148 55.1477 43.23 55.1477 43.23C55.1477 43.23 55.1857 42.5867 54.7364 42.1775C54.3567 41.8315 53.4834 41.3084 53.4834 41.3084C53.2809 41.1354 53.2492 40.9962 53.4138 40.9055C53.6521 40.7768 53.939 40.9561 54.209 41.0932C54.479 41.2304 55.2194 41.5932 55.2194 41.5932C55.6371 41.821 56.2804 41.7493 56.2804 41.7493C56.2804 41.7493 56.4239 41.2346 56.2192 40.9899C55.9239 40.6355 55.0739 40.2579 55.0739 40.2579C54.8608 40.1018 54.806 40.0069 54.9262 39.8782C55.0464 39.7517 55.1561 39.7538 55.5126 39.9204C55.8881 40.0976 56.1792 40.2411 56.5167 40.3507C56.8542 40.4604 57.4743 40.2516 57.4743 40.2516C57.4743 40.2516 57.4553 39.7728 57.1389 39.5618C56.8942 39.3994 56.5989 39.2813 56.5989 39.2813C56.4344 39.2243 56.3057 39.0936 56.388 38.9396C56.485 38.7624 56.8605 38.9143 57.0989 38.9607C57.4469 39.0282 57.6367 39.045 57.9974 38.9143C58.2337 38.8278 58.3666 38.5852 58.3666 38.5852C58.3666 38.5852 58.3371 38.408 57.7422 38.3342V38.3342Z" fill="url(#paint9_radial)"/>
<path d="M49.6718 43.0886C49.3575 42.8186 48.9314 42.6731 48.518 42.7195C48.3112 42.7427 48.1045 42.8081 47.8957 42.7912C47.6869 42.7722 47.4654 42.6309 47.4548 42.4221C47.4485 42.285 47.5308 42.1626 47.6025 42.0466C47.7902 41.7429 47.9273 41.38 47.843 41.0341C47.7586 40.6882 47.3768 40.4034 47.0435 40.53C46.7271 40.6502 46.6237 41.0362 46.5162 41.3568C46.3706 41.7935 46.1407 42.2027 45.8454 42.5571C45.7167 42.7111 45.5269 42.8693 45.3349 42.8081C45.0586 42.7237 45.626 41.1522 45.0227 39.8613C44.8413 39.4753 44.6894 39.1251 44.5418 39.1251C44.2866 39.1251 44.2022 39.9921 44.1305 40.3064C44.0672 40.5869 43.9237 41.1248 43.6516 41.1628C43.4702 41.1881 43.2487 40.897 43.1918 40.7831C43.0019 40.4076 42.6412 39.4668 42.2362 39.2517C41.9262 39.0893 41.5591 39.3107 41.5591 39.8297C41.5591 40.0047 41.9346 41.167 42.1751 41.8125C42.251 42.0171 41.846 42.1668 41.6456 41.785C41.6456 41.785 41.0276 40.7536 40.785 40.4055C40.4222 39.8824 39.7641 39.9773 39.7641 39.9773C39.7641 39.9773 39.4983 40.4097 39.7198 41.0404C39.9033 41.5678 39.8843 41.4286 40.0446 41.8399C40.1669 42.15 40.0193 42.3356 39.8273 42.3461C39.5088 42.3567 39.4139 41.9854 39.4139 41.9854C39.3443 41.7935 39.049 41.1375 38.8591 40.743C38.587 40.1756 37.9247 40.1777 37.9247 40.1777C37.9247 40.1777 37.5703 40.3549 37.7011 40.6987C37.8319 41.0425 37.9184 41.1733 38.0217 41.399C38.163 41.707 38.0259 41.9179 37.8002 41.8462C37.5893 41.7787 37.488 41.553 37.3805 41.3864C37.159 41.0383 37.0936 40.935 36.9059 40.6882C36.5726 40.2431 36.1043 40.3971 36.1043 40.3971C36.1043 40.3971 35.7035 40.6523 35.9419 41.0468C35.9419 41.0468 36.0452 41.2788 36.1887 41.5404C36.2878 41.7218 36.2519 41.8779 36.079 41.9053C35.8786 41.9369 35.8554 41.7998 35.7035 41.5678C35.5453 41.3273 35.4588 41.1797 35.2542 40.9307C35.0116 40.6375 34.6003 40.6903 34.6003 40.6903C34.6003 40.6903 34.3387 40.8928 34.5286 41.2598C34.6172 41.4328 34.7459 41.5066 34.6847 41.61C34.5391 41.8589 34.2185 41.4729 34.0519 41.3315C33.7312 41.0615 33.341 41.1797 33.341 41.1797C33.341 41.1797 33.3157 41.4117 33.5013 41.6564C33.5752 41.7534 33.6173 41.8019 33.7544 41.9285C33.8641 42.0297 33.7777 42.0403 33.6701 42.1036C33.1533 42.4073 33.1997 42.5803 33.1997 42.5803C33.1997 42.5803 33.4169 42.749 33.668 42.7364C34.0519 42.7153 34.2185 42.6225 34.5117 42.4221C34.7121 42.285 34.9969 41.9939 35.1551 42.1204C35.2922 42.228 35.2268 42.401 35.0981 42.5191C35.0981 42.5191 34.8745 42.7448 34.7142 42.9916C34.5075 43.3101 34.6805 43.7573 34.6805 43.7573C34.6805 43.7573 35.3344 43.6982 35.598 43.4662C35.8638 43.2321 36.0727 42.9832 36.3469 42.6731C36.6084 42.3778 36.7076 42.3314 36.8679 42.401C37.0282 42.4685 37.0155 42.5782 36.8827 42.8081C36.8827 42.8081 36.2519 43.4936 36.1212 43.9366C36.0305 44.2425 36.368 44.658 36.368 44.658C36.368 44.658 36.986 44.4682 37.2792 44.0927C37.2792 44.0927 37.815 43.4641 38.0069 43.2321C38.201 43 38.393 42.7195 38.663 42.7448C38.8486 42.7617 38.876 42.903 38.76 43.1414C38.76 43.1414 38.1673 43.9682 37.9563 44.4365C37.7074 44.9892 37.9964 45.565 37.9964 45.565C37.9964 45.565 38.7642 45.5418 39.1207 45.0778C39.6966 44.3268 39.6291 44.3311 39.8885 43.9999C40.1944 43.6075 40.5867 43.2595 40.7681 43.384C41.036 43.5675 40.7344 43.7995 40.6437 43.9429C40.6437 43.9429 39.7746 45.0736 39.608 45.5165C39.3612 46.1683 39.6354 46.875 39.6354 46.875C39.6354 46.875 40.3948 46.8117 40.9959 46.0987C41.1014 45.9743 41.1921 45.8625 41.2765 45.7612L41.7532 46.0797C41.5275 46.4784 41.3609 46.8876 41.2027 47.3854C41.5866 47.2568 43.4133 47.9043 43.4133 47.9043L49.3195 47.9191C49.3575 47.6997 49.3659 47.4867 49.3533 47.2779L49.6338 47.28L51.6546 47.358C51.6546 47.358 52.0659 46.5775 52.4435 46.4088C52.4941 46.3856 52.5089 46.3244 52.473 46.2822C52.1482 45.9152 51.7601 45.468 51.3192 45.236C50.9374 45.0356 50.5366 45.1031 50.3278 44.6243C50.1084 44.1243 50.1844 43.616 49.7836 43.1962C49.7498 43.1582 49.7119 43.1224 49.6718 43.0886V43.0886Z" fill="url(#paint10_radial)"/>
<path d="M48.0285 42.0489C47.8007 41.9244 47.7121 41.7493 47.8766 41.6186C47.9504 41.5595 48.2415 41.6776 48.7773 41.8232C49.4692 42.0109 49.8826 42.129 50.3193 42.11C51.2031 42.0742 51.3297 41.3085 51.3297 41.3085C51.3297 41.3085 51.2221 40.9858 50.3994 40.9288C50.0809 40.9077 49.5114 40.7896 49.0557 40.6588C48.6339 40.5386 48.2816 40.3107 48.4925 40.1061C48.6191 39.9838 48.8786 40.0977 49.1675 40.1483C49.8004 40.2601 50.3172 40.3846 50.7158 40.3951C51.5554 40.4183 51.8422 39.8868 51.8422 39.8868C51.8422 39.8868 51.7325 39.3932 51.085 39.2329C50.739 39.1464 50.3593 39.0915 49.6654 38.9439C49.2625 38.8595 49.2878 38.735 49.408 38.6275C49.5704 38.4819 49.9037 38.5178 50.1083 38.5347C50.6019 38.579 51.22 38.7266 51.5596 38.7477C52.146 38.7836 52.4497 38.3448 52.4497 38.3448C52.4497 38.3448 52.4286 37.8449 51.8591 37.6656C51.3191 37.4947 51.1904 37.5665 50.7665 37.4104C50.4965 37.3112 50.4015 37.1973 50.5091 37.1003C50.6082 37.0117 50.8213 37.0096 51.2326 37.0433C51.7832 37.0876 52.2114 37.1847 52.629 37.2226C53.3483 37.288 53.555 36.8303 53.555 36.8303C53.555 36.8303 53.4897 36.44 52.9792 36.284C52.7345 36.208 52.4666 36.1806 52.0468 36.0583C51.8781 36.0097 51.8507 35.9169 51.9203 35.8072C51.9899 35.6997 52.1818 35.6765 52.4518 35.7039C52.9201 35.7524 53.0868 35.7925 53.4158 35.8431C54.0697 35.9465 54.3967 35.6596 54.3967 35.6596C54.3967 35.6596 54.4747 35.2693 54.1014 35.1365C53.7575 35.0141 53.5192 35.0036 53.2703 34.9382C53.0214 34.8728 53.0509 34.7673 53.1332 34.7083C53.4158 34.5036 54.2638 34.8243 54.5549 34.8559C55.0506 34.9108 55.3206 34.6197 55.3206 34.6197C55.3206 34.6197 55.3965 34.2547 55.0379 34.1303C54.7511 34.0311 54.4874 34.0206 54.6435 33.8772C54.7194 33.8075 54.9831 33.7843 55.1202 33.7949C55.5379 33.8244 55.6982 33.8687 55.8986 33.816C56.0863 33.7675 56.3352 33.5861 56.4744 33.449C56.1707 33.2486 55.8205 33.1916 55.4661 33.1368C55.0717 33.0756 54.8502 33.5249 54.654 33.4616C54.557 33.43 54.7743 33.0904 54.5507 33.1136C54.4178 33.1283 54.1309 33.1979 54.0191 33.5186C53.92 33.8012 53.901 34.2189 53.6141 34.1619C53.4369 34.1282 53.5086 33.9278 53.534 33.7865C53.6036 33.4068 53.439 33.3477 53.439 33.3477C53.439 33.3477 52.8505 33.3372 52.6522 33.9552C52.5468 34.2822 52.4877 34.8538 52.2177 34.8454C51.9878 34.839 52.0785 34.5754 52.0743 34.3454C52.0679 33.9784 51.7283 33.9341 51.7283 33.9341C51.7283 33.9341 51.1651 34.0459 51.1335 34.5205C51.1208 34.7019 51.1124 35.0458 51.1124 35.4486C51.1124 35.7925 51.0259 36.0646 50.8951 36.1236C50.642 36.2397 50.6336 35.9148 50.6125 35.5773C50.5914 35.2419 50.6019 35.05 50.5492 34.9044C50.4711 34.6935 50.0387 34.7125 50.0387 34.7125C50.0387 34.7125 49.5662 35.069 49.5852 35.4571C49.6 35.7608 49.6485 36.2143 49.6801 36.3958C49.735 36.7143 49.7307 37.1467 49.543 37.3154C49.3595 37.48 49.2287 36.9695 49.0895 36.2101C48.965 35.5267 48.4419 35.6132 48.4419 35.6132C48.4419 35.6132 47.942 35.9886 48.02 36.5793C48.077 37.018 48.1719 37.3365 48.2521 37.5981C48.4504 38.2478 48.482 38.4819 48.4208 38.6296C48.1761 39.2202 47.8766 38.2309 47.6108 37.423C47.4273 36.864 46.9337 36.9294 46.9337 36.9294C46.9337 36.9294 46.4992 37.3407 46.5962 37.8491C46.7565 38.695 47.0392 39.1717 47.2227 39.4839C47.5644 40.0703 47.6361 40.3297 47.5729 40.4837C47.5033 40.6504 47.1847 40.4816 46.9358 40.0703C46.67 39.6252 46.5519 39.3573 46.3621 38.811C46.1997 38.3469 46.0161 38.406 46.0161 38.406C46.0161 38.406 45.6133 38.9818 45.8115 39.6273C46.2081 40.914 46.997 41.5468 47.0708 41.6186C47.248 41.7873 47.0033 41.8 46.6553 41.6375C46.2756 41.4604 45.7546 40.4964 45.7546 40.4964C45.7546 40.4964 45.5964 41.0047 45.8959 41.6671C46.244 42.4349 46.765 42.5277 47.0877 42.6079C47.4653 42.7028 47.6045 42.6437 47.7943 42.8758C48.5832 43.8503 49.7286 43.6963 49.9206 43.6963C50.855 43.6963 50.9584 43.0424 50.9584 43.0424C50.9584 43.0424 50.8192 42.7471 50.2075 42.6416C49.9649 42.5994 49.7097 42.6247 48.925 42.3969C48.655 42.3231 48.2879 42.1902 48.0285 42.0489V42.0489Z" fill="#73B03E"/>
<path d="M44.7758 37.5938C44.7758 37.5938 44.2759 37.8005 44.2084 38.2055C44.1261 38.6168 44.1093 39.8318 43.8941 40.3106C43.7528 40.6228 43.5039 40.4267 43.6009 39.9183C43.7254 39.2728 43.8751 38.4502 43.776 37.7688C43.6937 37.2077 43.217 36.8555 43.217 36.8555C43.217 36.8555 42.7382 36.923 42.6875 37.2183C42.6032 37.714 42.6285 38.1506 42.599 38.4839C42.5779 38.7159 42.58 39.1315 42.2868 39.0534C42.099 39.0049 42.1518 38.4396 42.1581 38.2688C42.1708 37.8701 42.2425 37.6824 42.2361 36.9251C42.2298 36.3155 41.5738 35.9822 41.5738 35.9822C41.5738 35.9822 41.1962 36.0813 41.1372 36.4526C41.0486 37.0179 41.1076 37.6402 40.7638 37.5326C40.5402 37.463 40.7132 36.5686 40.6499 36.1003C40.5866 35.6194 40.1542 35.3367 40.1542 35.3367C40.1542 35.3367 39.7429 35.3473 39.7112 35.7818C39.6838 36.1784 39.7429 36.7395 39.3885 36.7521C39.0383 36.7648 39.2197 36.1657 39.1185 35.4759C39.0447 34.9739 38.4857 34.7777 38.4857 34.7777C38.4857 34.7777 38.0448 34.8474 38.049 35.2017C38.0511 35.3367 38.0258 35.6911 37.8043 35.6447C37.604 35.6025 37.5196 35.3156 37.4711 35.1511C37.4099 34.9486 37.3614 34.8115 37.2011 34.6575C37.0154 34.4782 36.4839 34.3116 36.4649 34.32C36.4333 34.3348 36.3868 34.7714 36.4522 34.9444C36.5493 35.2059 36.7286 35.3473 36.8868 35.5603C37.0872 35.8282 36.775 35.7818 36.5598 35.9168C36.3046 36.0771 36.2434 36.3661 36.2434 36.3661C36.2434 36.3661 36.5387 36.6171 36.8404 36.6382C37.1272 36.6593 37.3951 36.5707 37.6567 36.4927C37.9942 36.3893 38.319 36.3092 38.4266 36.4674C38.5911 36.7057 38.03 36.7205 37.6335 37.0453C37.3867 37.2478 37.3614 37.5895 37.3614 37.5895C37.3614 37.5895 37.9794 37.9945 38.2895 37.8849C38.8907 37.6697 39.1037 37.4904 39.3927 37.3976C39.7239 37.29 40.093 37.4609 39.7112 37.7288C39.437 37.9228 39.0995 38.1106 38.878 38.3341C38.6059 38.6063 38.6291 38.967 38.6291 38.967C38.6291 38.967 39.0742 39.3024 39.4454 39.218C40.0572 39.0788 40.4368 38.7834 40.7617 38.6295C41.1519 38.4459 41.3122 38.4924 41.4451 38.5999C41.5886 38.7181 41.3143 38.8362 40.9726 39.0113C40.5782 39.2138 40.1436 39.5724 39.9812 39.7474C39.7703 39.9752 39.7914 40.781 39.7914 40.781C39.7914 40.781 40.4537 41.0257 41.0064 40.7705C41.5886 40.5026 42.2003 39.8888 42.4597 39.9816C42.8605 40.1229 42.5568 40.3486 41.9851 40.8084C41.5506 41.1586 41.173 41.4117 40.9009 41.7155C40.6457 42.0002 40.6604 42.7301 40.6604 42.7301C40.6604 42.7301 40.9937 42.9284 41.4873 42.8862C42.1201 42.8334 42.9365 41.7577 43.2465 41.4687C43.449 41.2809 43.6389 41.5299 43.2929 42.1711C42.7593 43.1625 42.5104 43.1583 42.2425 43.9198C42.0358 44.5125 42.3838 45.0842 42.3838 45.0842C42.3838 45.0842 42.9301 45.2234 43.3014 44.9618C43.5967 44.7551 43.8097 44.3522 44.0228 43.7763C44.0734 43.6413 44.1747 43.3165 44.1641 42.4727C44.1578 41.8463 44.0439 42.0129 44.3708 41.4518C45.1344 40.1419 45.3601 39.5492 45.2547 38.5577C45.1935 37.9587 44.7758 37.5938 44.7758 37.5938V37.5938Z" fill="#73B03E"/>
<path d="M47.8894 43.635C47.8894 43.635 46.7861 43.9598 46.4191 44.2762C46.0521 44.5947 45.6429 45.1558 45.2041 45.314C44.7654 45.4722 44.4574 45.4343 44.4574 45.4343C44.4574 45.4343 44.7105 44.4365 45.3897 43.9514C46.0753 43.4599 47.1047 43.2468 47.8894 43.635Z" fill="#A1D65C"/>
<path d="M41.5612 46.2189H51.9857V48.054H41.5612V46.2189Z" fill="url(#paint11_linear)"/>
<path d="M55.9113 52.3763C55.9598 52.2034 55.9345 51.9734 55.9408 51.6254C55.945 51.4229 56.0631 51.4187 56.407 51.7667C56.5588 51.9207 56.8394 51.946 56.8394 51.946C56.8731 51.3005 56.5947 51.1107 56.1496 50.8597C55.7573 50.6403 55.3755 50.5602 55.5505 50.3155C55.6075 50.2353 55.8712 50.364 56.0062 50.4167C56.8014 50.731 56.871 50.4884 56.871 50.4884C56.871 50.4884 56.8183 49.8725 56.0125 49.5898C55.6244 49.4548 54.9641 49.3578 54.9726 49.1616C54.981 48.9043 55.348 49.0013 55.5632 49.0541C56.6516 49.3156 56.7508 49.149 56.7508 49.149C56.7508 49.149 56.5293 48.2567 55.5041 48.0795C54.9979 47.993 54.0951 47.9129 54.0508 47.6724C54.0044 47.4172 54.9873 47.5627 55.3797 47.626C55.926 47.7146 56.0842 47.5733 56.0842 47.5733C56.0842 47.5733 55.848 46.7401 54.692 46.6409C53.8398 46.5692 53.2851 46.6831 53.148 46.468C53.0256 46.2718 53.8124 46.2233 54.5718 46.2802C55.1688 46.3245 55.4915 46.3098 55.4915 46.3098C55.4915 46.3098 55.2637 45.4639 54.0128 45.3774C52.7683 45.2909 51.6208 45.62 51.7642 45.3753C51.9161 45.118 52.416 45.0779 53.0488 45.0463C53.3716 45.0315 53.7702 45.042 53.9812 45.0146C54.4748 44.9513 54.6266 44.7509 54.6266 44.7509C54.6266 44.7509 54.1035 44.2595 53.3441 44.1266C52.6755 44.0105 52.1144 44.1034 51.3276 44.289C50.8952 44.3902 50.3763 44.5379 50.2307 44.4155C50.1358 44.3375 50.5049 44.1097 50.8973 44.0148C51.2221 43.9367 51.8444 43.8777 52.2789 43.8418C52.5531 43.8207 52.7303 43.73 52.7303 43.73C52.7303 43.73 52.6164 43.6372 52.4118 43.5338C52.0321 43.3419 51.3866 43.171 50.7602 43.2976C50.3826 43.3735 50.0978 43.4431 49.7983 43.673C49.4903 43.9093 49.3152 44.1287 48.9398 44.116C48.5643 44.1055 48.3491 43.9515 47.6741 44.1772C47.3809 44.2763 46.7903 44.7024 46.3241 45.2403C45.839 45.8014 45.9402 46.3245 45.9402 46.3245C45.9402 46.3245 46.4507 46.4764 46.9654 46.1895C47.6889 45.7866 48.5538 44.6307 48.9229 44.6729C49.3638 44.7235 48.7541 45.1665 48.4673 45.4745C47.8197 46.1663 47.5181 46.7823 47.4316 47.3012C47.3535 47.7716 47.5391 47.9994 47.5391 47.9994C47.5391 47.9994 48.1994 47.9045 48.482 47.5142C48.8913 46.9468 49.3279 46.4131 49.6127 46.0187C49.9628 45.5335 50.1653 45.3753 50.3425 45.2994C50.6884 45.1517 50.9648 45.253 50.4648 45.8246C49.8679 46.5059 49.3574 47.2527 49.2245 47.7779C49.0959 48.282 49.3448 48.7102 49.3448 48.7102C49.3448 48.7102 49.9565 48.4972 50.2265 48.1513C50.7665 47.4573 50.9458 47.0586 51.2369 46.6262C51.4647 46.2866 51.7284 46.0145 51.9857 46.0883C52.262 46.1684 51.9752 46.5017 51.6334 47.008C51.3423 47.4362 51.0133 48.0563 50.9226 48.5098C50.8023 49.1173 50.9859 49.4127 50.9859 49.4127C50.9859 49.4127 51.7199 49.2945 51.9372 48.9613C52.1249 48.6765 52.4751 47.953 52.7198 47.6155C52.9223 47.3349 53.1016 46.9784 53.3505 47.1261C53.4813 47.2041 53.3526 47.4995 53.0763 47.9487C52.8632 48.2947 52.6206 48.7524 52.5046 49.1363C52.3844 49.5329 52.5552 49.9716 52.5552 49.9716C52.5552 49.9716 53.1564 49.9991 53.4011 49.5329C53.6057 49.1448 53.7871 48.8157 53.9348 48.5795C54.2512 48.0753 54.4452 48.4276 54.209 48.8705C53.958 49.3409 53.7829 49.6552 53.6605 50.113C53.5846 50.3977 53.7238 50.7795 53.7238 50.7795C53.7238 50.7795 54.1014 50.8048 54.3166 50.5306C54.6941 50.0497 54.6836 49.6995 54.9051 49.8978C55.0633 50.0413 54.6984 50.5454 54.5001 50.9124C54.3018 51.2816 54.3904 51.7077 54.3904 51.7077C54.3904 51.7077 54.8566 51.8722 55.0591 51.4651C55.4261 50.731 55.597 51.0158 55.4978 51.3491C55.4662 51.4588 55.3164 51.9418 55.2848 52.0536C55.1097 52.6463 55.4366 52.8995 55.4366 52.8995C55.4366 52.8995 55.7973 52.7771 55.9113 52.3763V52.3763Z" fill="#A1D65C"/>
<path d="M36.9185 53.0049C36.8594 52.8889 36.7265 52.6252 36.9248 52.5219C37.1505 52.4016 37.2349 52.7708 37.4416 52.988C37.7939 53.3551 38.1103 53.1863 38.1103 53.1863C38.1103 53.1863 38.3465 52.8488 38.1483 52.3679C37.9563 51.9038 37.5429 51.5811 37.7095 51.3617C37.8023 51.2394 38.0702 51.1466 38.4309 51.8321C38.7642 52.4649 39.2936 52.3468 39.2936 52.3468C39.2936 52.3468 39.6607 51.8975 39.397 51.2141C39.2135 50.7416 38.8317 50.3302 38.914 50.1003C39.0131 49.8219 39.2578 49.8324 39.4961 50.2459C39.6459 50.5032 39.7957 50.8196 39.9855 51.0727C40.3526 51.5663 40.8757 51.5284 40.8757 51.5284C40.8757 51.5284 41.1478 51.0643 40.9347 50.3872C40.8272 50.0455 40.7154 49.7712 40.4644 49.2903C40.3399 49.0541 40.1184 48.7292 40.2872 48.533C40.4496 48.3453 40.6837 48.5816 40.8757 48.8705C41.3334 49.5603 41.3503 49.7628 41.5823 50.1298C41.9219 50.6635 42.6518 50.6424 42.6518 50.6424C42.6518 50.6424 42.9281 50.1003 42.8205 49.5624C42.6876 48.9085 42.5294 48.4402 42.1519 47.8475C41.9831 47.5838 41.7911 47.2442 41.9451 47.1409C42.0928 47.0438 42.3206 47.1472 42.5927 47.5606C42.9619 48.1196 43.2487 48.6638 43.5061 49.1279C43.8077 49.6721 44.5439 49.7607 44.5439 49.7607C44.5439 49.7607 44.8392 49.4464 44.5797 48.4845C44.3815 47.7505 44.1072 47.2885 43.9279 46.9573C43.7065 46.5523 43.3204 46.2823 43.5672 46.1705C43.7951 46.0672 44.0946 46.3351 44.4215 46.8477C44.759 47.3771 44.8434 47.78 45.2379 48.3263C45.5606 48.7756 46.3179 48.706 46.3179 48.706C46.3179 48.706 46.4233 48.2757 46.3411 47.8559C46.2567 47.4193 45.9888 46.9152 45.5669 46.4321C44.624 45.3521 44.0229 45.7993 43.9638 45.5968C43.9364 45.5019 43.9891 45.2108 43.7571 44.81C43.4238 44.2362 42.6096 43.6962 41.6899 43.7047C41.3208 43.7089 40.6605 43.8228 40.3652 44.0295C40.3652 44.0295 40.399 44.3523 40.7976 44.5273C41.268 44.7362 42.2109 44.9197 42.6117 45.2909C42.8775 45.5356 43.0441 45.8225 42.7594 45.7065C42.6412 45.658 42.2383 45.3732 41.8165 45.2234C41.3756 45.0673 40.9305 44.9998 40.4011 44.983C39.6101 44.9577 38.9941 45.2867 38.9941 45.2867C38.9941 45.2867 39.0363 45.4892 39.5025 45.7276C39.783 45.871 40.65 45.9997 40.9811 46.1621C41.2533 46.295 41.4958 46.3899 41.3419 46.5439C41.2448 46.6409 41.0929 46.6093 40.9664 46.5608C40.38 46.333 39.4814 46.217 39.0026 46.198C38.3381 46.1727 37.8614 46.6093 37.8614 46.6093C37.8614 46.6093 37.8572 46.97 38.3402 47.1324C39.0405 47.3666 40.0762 47.3244 40.3125 47.5902C40.5424 47.8517 39.9686 47.8939 39.4371 47.7948C38.8612 47.6851 38.5638 47.6513 37.5534 47.8032C36.87 47.9045 36.524 48.377 36.524 48.377C36.524 48.377 36.7076 48.782 37.0767 48.8178C37.8129 48.8916 39.3611 48.7588 39.2472 49.0604C39.1439 49.3325 38.8211 49.3114 38.49 49.2882C37.8867 49.2481 37.3509 49.2186 36.7751 49.3536C36.0832 49.516 35.8406 50.0898 35.8406 50.0898C35.8406 50.0898 36.0136 50.3872 36.4228 50.3935C37.1737 50.4062 38.1082 50.1467 38.298 50.3176C38.5659 50.5602 37.9563 50.6509 37.6315 50.6656C37.2244 50.6846 36.4776 50.7395 36.0621 50.9441C35.5115 51.2141 35.4588 51.6402 35.4588 51.6402C35.4588 51.6402 35.579 51.8595 36.1422 51.8173C36.292 51.8068 36.8426 51.6296 37.0556 51.6697C37.3931 51.7351 37.1041 51.9397 36.7308 52.0367C36.6211 52.0641 36.1528 52.1717 35.9482 52.2835C35.7351 52.3995 35.3913 52.5155 35.3154 53.1695C35.3154 53.1695 35.5453 53.2686 35.9735 53.1378C36.1739 53.0766 36.3511 52.9374 36.4544 53.0387C36.5557 53.1399 36.3152 53.4352 36.2878 53.739C36.2287 54.3613 36.5915 54.6312 36.5915 54.6312C36.5915 54.6312 37.0029 54.3718 37.0725 53.8761C37.14 53.3509 36.9649 53.0977 36.9185 53.0049V53.0049Z" fill="#A1D65C"/>
<path d="M7.69721 17.3251C7.9387 17.3251 8.13994 17.317 8.30093 17.3009V17.4619C8.00041 17.5317 7.78844 17.7651 7.66502 18.1622L6.14365 23.0402H6.07926H6.01486L4.61424 18.8947L3.33437 23.0402H3.26997H3.20557L1.49907 17.9771C1.38638 17.6444 1.20124 17.4727 0.943653 17.4619V17.3009C1.16367 17.317 1.45077 17.3251 1.80495 17.3251C2.19133 17.3251 2.48111 17.317 2.6743 17.3009V17.4619C2.52941 17.4727 2.42745 17.4995 2.36842 17.5424C2.30939 17.5853 2.27988 17.6524 2.27988 17.7437C2.27988 17.8295 2.30939 17.961 2.36842 18.1381L3.54365 21.7282L4.5257 18.613L4.30836 17.9771C4.20103 17.6444 4.04273 17.4727 3.83344 17.4619V17.3009C4.02663 17.317 4.28689 17.3251 4.61424 17.3251C5.07575 17.3251 5.4192 17.317 5.64458 17.3009V17.4619C5.44066 17.4727 5.29845 17.4968 5.21796 17.5344C5.13746 17.5666 5.09721 17.639 5.09721 17.7517C5.09721 17.8483 5.12405 17.9771 5.17771 18.1381L6.33684 21.7201L7.32694 18.605C7.4128 18.342 7.45573 18.1247 7.45573 17.9529C7.45573 17.7759 7.40207 17.6524 7.29474 17.5827C7.18741 17.5075 7.013 17.4673 6.77152 17.4619V17.3009C7.0774 17.317 7.38597 17.3251 7.69721 17.3251ZM9.1982 23.0563C8.86012 23.0563 8.6079 22.9732 8.44155 22.8068C8.28055 22.6351 8.20006 22.399 8.20006 22.0985C8.20006 21.857 8.26446 21.6584 8.39325 21.5028C8.52741 21.3472 8.68303 21.2237 8.86012 21.1325C9.04258 21.0413 9.28138 20.9447 9.57653 20.8427C9.87705 20.7408 10.0997 20.6469 10.2446 20.561C10.3895 20.4751 10.462 20.3598 10.462 20.2149V19.7158C10.462 19.4045 10.3949 19.1926 10.2607 19.0799C10.1319 18.9618 9.94949 18.9028 9.71337 18.9028C9.33773 18.9028 9.07209 18.9994 8.91647 19.1926C9.02379 19.2194 9.11234 19.2757 9.1821 19.3616C9.25723 19.4475 9.2948 19.5548 9.2948 19.6836C9.2948 19.8177 9.25187 19.9251 9.166 20.0056C9.08014 20.0807 8.97013 20.1183 8.83597 20.1183C8.68571 20.1183 8.57302 20.0727 8.49789 19.9814C8.42276 19.8848 8.3852 19.7695 8.3852 19.6353C8.3852 19.5065 8.41471 19.3992 8.47374 19.3133C8.53814 19.2275 8.63205 19.1416 8.75548 19.0557C8.88427 18.9645 9.04794 18.8894 9.2465 18.8303C9.44505 18.7713 9.66239 18.7418 9.89851 18.7418C10.3171 18.7418 10.6337 18.8411 10.8484 19.0396C10.9825 19.1631 11.0711 19.3133 11.114 19.4904C11.1623 19.6621 11.1864 19.8902 11.1864 20.1746V22.4124C11.1864 22.5465 11.2052 22.6431 11.2428 22.7022C11.2803 22.7612 11.3447 22.7907 11.436 22.7907C11.5004 22.7907 11.5594 22.7773 11.6131 22.7505C11.6721 22.7183 11.7338 22.6753 11.7982 22.6217L11.8867 22.7585C11.7472 22.8658 11.6265 22.9437 11.5245 22.992C11.4279 23.0349 11.3045 23.0563 11.1542 23.0563C10.8967 23.0563 10.7169 22.992 10.6149 22.8632C10.513 22.7344 10.462 22.56 10.462 22.3399C10.301 22.6083 10.1158 22.7961 9.90656 22.9034C9.69727 23.0054 9.46115 23.0563 9.1982 23.0563ZM9.55238 22.7344C9.90656 22.7344 10.2098 22.5304 10.462 22.1226V20.5449C10.4137 20.62 10.3466 20.6817 10.2607 20.73C10.1749 20.7783 10.0434 20.8427 9.86631 20.9232C9.66239 21.0091 9.49603 21.0923 9.36724 21.1728C9.24382 21.2479 9.13649 21.3525 9.04526 21.4867C8.95403 21.6208 8.90842 21.7926 8.90842 22.0019C8.90842 22.2433 8.96745 22.4258 9.08551 22.5492C9.20357 22.6727 9.35919 22.7344 9.55238 22.7344ZM13.4246 18.8625H14.6159V19.0235H13.4246V22.1387C13.4246 22.3802 13.4675 22.5546 13.5534 22.6619C13.6446 22.7692 13.7734 22.8229 13.9398 22.8229C14.1061 22.8229 14.2483 22.7558 14.3664 22.6217C14.4844 22.4875 14.5837 22.2675 14.6642 21.9616L14.8252 22.0019C14.691 22.7424 14.3422 23.1127 13.7788 23.1127C13.5963 23.1127 13.4461 23.0912 13.328 23.0483C13.2099 23.0054 13.1053 22.9383 13.0141 22.8471C12.896 22.729 12.8128 22.5841 12.7645 22.4124C12.7216 22.2407 12.7001 22.0099 12.7001 21.7201V19.0235H11.9274V18.8625H12.7001V17.631C13.0006 17.6202 13.2421 17.5827 13.4246 17.5183V18.8625ZM18.4677 22.0341C18.3712 22.3292 18.1887 22.5841 17.9204 22.7988C17.6574 23.008 17.3381 23.1127 16.9625 23.1127C16.5815 23.1127 16.2514 23.0268 15.9724 22.8551C15.6933 22.678 15.4787 22.4338 15.3284 22.1226C15.1835 21.806 15.1111 21.4411 15.1111 21.0279C15.1111 20.561 15.1862 20.1558 15.3365 19.8124C15.4867 19.4689 15.6987 19.206 15.9724 19.0235C16.2461 18.8357 16.5654 18.7418 16.9303 18.7418C17.4133 18.7418 17.7835 18.8894 18.0411 19.1845C18.3041 19.4743 18.4355 19.917 18.4355 20.5127H15.916C15.8999 20.663 15.8919 20.8347 15.8919 21.0279C15.8919 21.382 15.9482 21.6906 16.0609 21.9536C16.179 22.2165 16.3319 22.4204 16.5198 22.5653C16.7129 22.7049 16.9142 22.7746 17.1235 22.7746C17.3811 22.7746 17.6091 22.7129 17.8077 22.5895C18.0062 22.466 18.1726 22.2594 18.3068 21.9697L18.4677 22.0341ZM16.8981 18.8947C16.6459 18.8947 16.4285 19.0182 16.2461 19.265C16.0636 19.5119 15.9509 19.8768 15.908 20.3598H17.6628C17.6735 19.9412 17.6118 19.5924 17.4777 19.3133C17.3489 19.0343 17.1557 18.8947 16.8981 18.8947ZM21.5496 18.7418C21.7642 18.7418 21.9386 18.8035 22.0728 18.9269C22.2123 19.0504 22.2821 19.2006 22.2821 19.3777C22.2821 19.5172 22.2392 19.638 22.1533 19.7399C22.0728 19.8365 21.9628 19.8848 21.8233 19.8848C21.7052 19.8848 21.6033 19.8473 21.5174 19.7721C21.4369 19.697 21.3966 19.595 21.3966 19.4663C21.3966 19.2892 21.4879 19.1443 21.6703 19.0316C21.6328 18.9779 21.5764 18.9511 21.5013 18.9511C21.292 18.9511 21.1015 19.0343 20.9298 19.2006C20.758 19.3616 20.6239 19.5602 20.5273 19.7963C20.4307 20.0324 20.3824 20.2551 20.3824 20.4644V22.1709C20.3824 22.4178 20.4522 22.5895 20.5917 22.6861C20.7366 22.7827 20.9512 22.831 21.2357 22.831V23L21.0425 22.992C20.4951 22.9759 20.1463 22.9678 19.996 22.9678C19.8565 22.9678 19.5399 22.9785 19.0462 23V22.831C19.2716 22.831 19.4299 22.7907 19.5211 22.7102C19.6123 22.6244 19.6579 22.4714 19.6579 22.2514V19.7319C19.6579 19.485 19.6123 19.3053 19.5211 19.1926C19.4299 19.0799 19.2716 19.0235 19.0462 19.0235V18.8545C19.2179 18.8706 19.3843 18.8786 19.5453 18.8786C19.8833 18.8786 20.1624 18.8411 20.3824 18.7659V19.7721C20.479 19.5038 20.6319 19.265 20.8412 19.0557C21.0559 18.8464 21.292 18.7418 21.5496 18.7418ZM30.902 17.4619C30.7088 17.4727 30.5666 17.4941 30.4753 17.5263C30.3895 17.5585 30.3304 17.6202 30.2982 17.7115C30.266 17.8027 30.2499 17.9503 30.2499 18.1542V22.1467C30.2499 22.3507 30.266 22.4982 30.2982 22.5895C30.3304 22.6807 30.3895 22.7424 30.4753 22.7746C30.5666 22.8068 30.7088 22.8283 30.902 22.839V23C30.6551 22.9839 30.3143 22.9759 29.8797 22.9759C29.4182 22.9759 29.0747 22.9839 28.8493 23V22.839C29.0425 22.8283 29.182 22.8068 29.2679 22.7746C29.3591 22.7424 29.4208 22.6807 29.453 22.5895C29.4852 22.4982 29.5013 22.3507 29.5013 22.1467V17.8322L27.5614 23.0402H27.4326L25.4041 17.8161V22.0663C25.4041 22.2755 25.4202 22.4312 25.4524 22.5331C25.49 22.6351 25.5597 22.7102 25.6617 22.7585C25.7637 22.8014 25.922 22.8283 26.1366 22.839V23C25.9434 22.9839 25.6698 22.9759 25.3156 22.9759C24.9936 22.9759 24.7441 22.9839 24.567 23V22.839C24.7548 22.8283 24.8943 22.8014 24.9855 22.7585C25.0768 22.7102 25.1385 22.6351 25.1707 22.5331C25.2029 22.4258 25.219 22.2702 25.219 22.0663V18.1542C25.219 17.9503 25.2029 17.8027 25.1707 17.7115C25.1385 17.6202 25.0768 17.5585 24.9855 17.5263C24.8997 17.4941 24.7602 17.4727 24.567 17.4619V17.3009C24.7441 17.317 24.9936 17.3251 25.3156 17.3251C25.5946 17.3251 25.8227 17.317 25.9998 17.3009L27.7707 21.9616L29.5013 17.3251H29.8797C30.3143 17.3251 30.6551 17.317 30.902 17.3009V17.4619ZM34.4954 18.8786C34.7316 18.8786 34.9355 18.8706 35.1072 18.8545V19.0155C34.9999 19.0262 34.9033 19.0745 34.8174 19.1604C34.7369 19.2462 34.6591 19.3858 34.584 19.5789L33.2639 23.0402L32.9902 23.7406C32.8882 24.0035 32.7728 24.1913 32.6441 24.304C32.5636 24.3792 32.467 24.4328 32.3543 24.465C32.2416 24.4972 32.1289 24.5133 32.0162 24.5133C31.8552 24.5133 31.7237 24.4704 31.6218 24.3845C31.5198 24.2987 31.4688 24.1806 31.4688 24.0303C31.4688 23.9015 31.5064 23.7969 31.5815 23.7164C31.6566 23.6413 31.7613 23.6037 31.8954 23.6037C32.0135 23.6037 32.1101 23.6359 32.1852 23.7003C32.2657 23.7701 32.306 23.864 32.306 23.982C32.306 24.143 32.2335 24.2638 32.0886 24.3443C32.0994 24.3496 32.1155 24.3523 32.1369 24.3523C32.4321 24.3523 32.6601 24.143 32.8211 23.7245L33.1029 22.992L31.6459 19.4743C31.5547 19.2918 31.4635 19.1711 31.3722 19.1121C31.281 19.053 31.1898 19.0235 31.0985 19.0235V18.8545C31.3293 18.8867 31.5922 18.9028 31.8874 18.9028C32.1557 18.9028 32.5045 18.8867 32.9338 18.8545V19.0235C32.7406 19.0235 32.5984 19.0396 32.5072 19.0718C32.4213 19.104 32.3784 19.1818 32.3784 19.3053C32.3784 19.418 32.4106 19.5494 32.475 19.6997L33.441 22.0985L34.3345 19.7721C34.3935 19.6111 34.423 19.4877 34.423 19.4019C34.423 19.2784 34.3747 19.1872 34.2781 19.1282C34.1815 19.0691 34.0286 19.0316 33.8193 19.0155V18.8545C34.1037 18.8706 34.3291 18.8786 34.4954 18.8786ZM38.7179 20.6978V22.1467C38.7179 22.3507 38.7394 22.4982 38.7823 22.5895C38.8253 22.6807 38.9004 22.7424 39.0077 22.7746C39.115 22.8068 39.2894 22.8283 39.5309 22.839V23C39.2519 22.9839 38.8575 22.9759 38.3477 22.9759C37.8861 22.9759 37.5427 22.9839 37.3173 23V22.839C37.5105 22.8283 37.65 22.8068 37.7359 22.7746C37.8271 22.7424 37.8888 22.6807 37.921 22.5895C37.9532 22.4982 37.9693 22.3507 37.9693 22.1467V18.1542C37.9693 17.9503 37.9532 17.8027 37.921 17.7115C37.8888 17.6202 37.8271 17.5585 37.7359 17.5263C37.65 17.4941 37.5105 17.4727 37.3173 17.4619V17.3009C37.5427 17.317 37.87 17.3251 38.2994 17.3251L39.1687 17.317C39.2707 17.3117 39.386 17.309 39.5148 17.309C40.1427 17.309 40.623 17.4539 40.9557 17.7437C41.2884 18.0281 41.4548 18.4118 41.4548 18.8947C41.4548 19.1899 41.3877 19.4743 41.2535 19.748C41.1247 20.0163 40.902 20.2417 40.5854 20.4241C40.2742 20.6066 39.8583 20.6978 39.3377 20.6978H38.7179ZM39.3136 17.4619C39.1472 17.4619 39.0211 17.4807 38.9353 17.5183C38.8548 17.5558 38.7984 17.6229 38.7662 17.7195C38.734 17.8161 38.7179 17.961 38.7179 18.1542V20.5368H39.2572C39.7832 20.5368 40.1454 20.3973 40.3439 20.1183C40.5479 19.8338 40.6498 19.4555 40.6498 18.9833C40.6498 18.4627 40.5452 18.079 40.3359 17.8322C40.132 17.5853 39.7912 17.4619 39.3136 17.4619ZM43.1305 22.2514C43.1305 22.4714 43.1761 22.6244 43.2673 22.7102C43.3585 22.7907 43.5168 22.831 43.7422 22.831V23C43.2485 22.9785 42.9239 22.9678 42.7682 22.9678C42.6126 22.9678 42.2879 22.9785 41.7942 23V22.831C42.0196 22.831 42.1779 22.7907 42.2692 22.7102C42.3604 22.6244 42.406 22.4714 42.406 22.2514V17.6551C42.406 17.4083 42.3604 17.2285 42.2692 17.1158C42.1779 17.0031 42.0196 16.9467 41.7942 16.9467V16.7777C41.9606 16.7938 42.1269 16.8019 42.2933 16.8019C42.6314 16.8019 42.9104 16.7643 43.1305 16.6892V22.2514ZM45.2325 23.0563C44.8944 23.0563 44.6422 22.9732 44.4758 22.8068C44.3148 22.6351 44.2343 22.399 44.2343 22.0985C44.2343 21.857 44.2987 21.6584 44.4275 21.5028C44.5617 21.3472 44.7173 21.2237 44.8944 21.1325C45.0768 21.0413 45.3156 20.9447 45.6108 20.8427C45.9113 20.7408 46.134 20.6469 46.2789 20.561C46.4238 20.4751 46.4962 20.3598 46.4962 20.2149V19.7158C46.4962 19.4045 46.4292 19.1926 46.295 19.0799C46.1662 18.9618 45.9837 18.9028 45.7476 18.9028C45.372 18.9028 45.1063 18.9994 44.9507 19.1926C45.058 19.2194 45.1466 19.2757 45.2164 19.3616C45.2915 19.4475 45.329 19.5548 45.329 19.6836C45.329 19.8177 45.2861 19.9251 45.2003 20.0056C45.1144 20.0807 45.0044 20.1183 44.8702 20.1183C44.72 20.1183 44.6073 20.0727 44.5321 19.9814C44.457 19.8848 44.4195 19.7695 44.4195 19.6353C44.4195 19.5065 44.449 19.3992 44.508 19.3133C44.5724 19.2275 44.6663 19.1416 44.7897 19.0557C44.9185 18.9645 45.0822 18.8894 45.2808 18.8303C45.4793 18.7713 45.6966 18.7418 45.9328 18.7418C46.3513 18.7418 46.668 18.8411 46.8826 19.0396C47.0168 19.1631 47.1053 19.3133 47.1482 19.4904C47.1965 19.6621 47.2207 19.8902 47.2207 20.1746V22.4124C47.2207 22.5465 47.2395 22.6431 47.277 22.7022C47.3146 22.7612 47.379 22.7907 47.4702 22.7907C47.5346 22.7907 47.5937 22.7773 47.6473 22.7505C47.7063 22.7183 47.7681 22.6753 47.8325 22.6217L47.921 22.7585C47.7815 22.8658 47.6607 22.9437 47.5588 22.992C47.4622 23.0349 47.3387 23.0563 47.1885 23.0563C46.9309 23.0563 46.7511 22.992 46.6492 22.8632C46.5472 22.7344 46.4962 22.56 46.4962 22.3399C46.3352 22.6083 46.1501 22.7961 45.9408 22.9034C45.7315 23.0054 45.4954 23.0563 45.2325 23.0563ZM45.5866 22.7344C45.9408 22.7344 46.244 22.5304 46.4962 22.1226V20.5449C46.4479 20.62 46.3809 20.6817 46.295 20.73C46.2091 20.7783 46.0777 20.8427 45.9006 20.9232C45.6966 21.0091 45.5303 21.0923 45.4015 21.1728C45.2781 21.2479 45.1707 21.3525 45.0795 21.4867C44.9883 21.6208 44.9427 21.7926 44.9427 22.0019C44.9427 22.2433 45.0017 22.4258 45.1198 22.5492C45.2378 22.6727 45.3934 22.7344 45.5866 22.7344ZM50.8675 18.7418C51.2432 18.7418 51.5276 18.8438 51.7208 19.0477C51.8227 19.155 51.8952 19.2892 51.9381 19.4502C51.981 19.6111 52.0025 19.8285 52.0025 20.1022V22.2514C52.0025 22.4714 52.0481 22.6244 52.1393 22.7102C52.2306 22.7907 52.3889 22.831 52.6143 22.831V23C52.1206 22.9785 51.7986 22.9678 51.6483 22.9678C51.4981 22.9678 51.1975 22.9785 50.7468 23V22.831C50.9453 22.831 51.0822 22.7907 51.1573 22.7102C51.2378 22.6244 51.278 22.4714 51.278 22.2514V19.9251C51.278 19.6246 51.2351 19.3965 51.1492 19.2409C51.0634 19.0799 50.889 18.9994 50.626 18.9994C50.406 18.9994 50.2101 19.0638 50.0384 19.1926C49.8667 19.3214 49.7325 19.4985 49.6359 19.7238C49.5447 19.9439 49.4991 20.1907 49.4991 20.4644V22.2514C49.4991 22.4714 49.5367 22.6244 49.6118 22.7102C49.6923 22.7907 49.8318 22.831 50.0304 22.831V23C49.5796 22.9785 49.2791 22.9678 49.1288 22.9678C48.9786 22.9678 48.6566 22.9785 48.1629 23V22.831C48.3883 22.831 48.5466 22.7907 48.6378 22.7102C48.729 22.6244 48.7746 22.4714 48.7746 22.2514V19.7319C48.7746 19.485 48.729 19.3053 48.6378 19.1926C48.5466 19.0799 48.3883 19.0235 48.1629 19.0235V18.8545C48.3346 18.8706 48.5009 18.8786 48.6619 18.8786C49 18.8786 49.2791 18.8411 49.4991 18.7659V19.7158C49.6332 19.3723 49.8184 19.1255 50.0545 18.9752C50.296 18.8196 50.567 18.7418 50.8675 18.7418ZM54.2618 18.8625H55.4532V19.0235H54.2618V22.1387C54.2618 22.3802 54.3048 22.5546 54.3906 22.6619C54.4819 22.7692 54.6106 22.8229 54.777 22.8229C54.9434 22.8229 55.0856 22.7558 55.2036 22.6217C55.3217 22.4875 55.421 22.2675 55.5015 21.9616L55.6625 22.0019C55.5283 22.7424 55.1795 23.1127 54.616 23.1127C54.4336 23.1127 54.2833 23.0912 54.1652 23.0483C54.0472 23.0054 53.9425 22.9383 53.8513 22.8471C53.7332 22.729 53.6501 22.5841 53.6018 22.4124C53.5588 22.2407 53.5374 22.0099 53.5374 21.7201V19.0235H52.7646V18.8625H53.5374V17.631C53.8379 17.6202 54.0794 17.5827 54.2618 17.5183V18.8625ZM57.2524 18.7418C57.4456 18.7418 57.6173 18.7713 57.7675 18.8303C57.9178 18.8894 58.0385 18.9591 58.1298 19.0396C58.1888 19.0826 58.2371 19.104 58.2747 19.104C58.3712 19.104 58.4303 18.986 58.4517 18.7498H58.6369C58.6154 19.0128 58.6047 19.4689 58.6047 20.1183H58.4195C58.3605 19.7641 58.2451 19.4716 58.0734 19.2409C57.9071 19.0101 57.6575 18.8947 57.3248 18.8947C57.1316 18.8947 56.9733 18.9511 56.8499 19.0638C56.7265 19.1711 56.6647 19.3214 56.6647 19.5146C56.6647 19.7024 56.7291 19.8607 56.8579 19.9895C56.9867 20.1129 57.1933 20.2632 57.4778 20.4402C57.526 20.4671 57.5985 20.5127 57.6951 20.5771C57.9419 20.7381 58.1405 20.8803 58.2908 21.0037C58.441 21.1271 58.5618 21.2693 58.653 21.4303C58.7496 21.5913 58.7979 21.7765 58.7979 21.9858C58.7979 22.3399 58.6637 22.6163 58.3954 22.8149C58.1324 23.0134 57.8078 23.1127 57.4214 23.1127C57.1799 23.1127 56.9679 23.0751 56.7855 23C56.6674 22.941 56.5574 22.8685 56.4555 22.7827C56.434 22.7612 56.4098 22.7505 56.383 22.7505C56.3454 22.7505 56.3106 22.7773 56.2784 22.831C56.2515 22.8846 56.2301 22.9598 56.214 23.0563H56.0288C56.0503 22.7505 56.061 22.2138 56.061 21.4464H56.2462C56.3052 21.9509 56.4125 22.3292 56.5682 22.5814C56.7238 22.8283 56.9894 22.9517 57.3651 22.9517C57.5529 22.9517 57.7192 22.89 57.8641 22.7666C58.009 22.6431 58.0815 22.4499 58.0815 22.187C58.0815 21.9777 58.009 21.8006 57.8641 21.6557C57.7246 21.5108 57.4939 21.3364 57.1719 21.1325C56.9089 20.9662 56.705 20.8293 56.5601 20.722C56.4206 20.6147 56.3025 20.4832 56.2059 20.3276C56.1093 20.1719 56.061 19.9895 56.061 19.7802C56.061 19.4421 56.1737 19.1845 56.3991 19.0074C56.6245 18.8303 56.9089 18.7418 57.2524 18.7418Z" fill="#71A0BA"/>
<path d="M32 10.552C32 10.4126 32.0689 10.2289 32.2066 10.001C32.3444 9.77312 32.4762 9.58435 32.602 9.43469C32.6361 9.39387 32.6786 9.3437 32.7296 9.28418C32.7806 9.22465 32.8095 9.19149 32.8163 9.18469L33.0153 9.41938C33.165 9.58605 33.3027 9.77993 33.4286 10.001C33.5544 10.2221 33.6173 10.4058 33.6173 10.552C33.6173 10.7765 33.54 10.9687 33.3852 11.1286C33.2304 11.2884 33.0408 11.3684 32.8163 11.3684C32.5918 11.3684 32.3997 11.2884 32.2398 11.1286C32.0799 10.9687 32 10.7765 32 10.552ZM33.699 12.8122C33.699 12.6558 33.7432 12.473 33.8316 12.2638C33.9201 12.0546 34.0289 11.8616 34.1582 11.6847C34.4065 11.3514 34.6446 11.0741 34.8724 10.8531C34.8963 10.836 34.9439 10.7918 35.0153 10.7204L35.1531 10.8531C35.3639 11.0537 35.6037 11.3292 35.8724 11.6796C36.0119 11.8667 36.125 12.0622 36.2117 12.2663C36.2985 12.4704 36.3418 12.6524 36.3418 12.8122C36.3418 13.1864 36.2143 13.5002 35.9592 13.7536C35.7041 14.007 35.3895 14.1337 35.0153 14.1337C34.648 14.1337 34.3367 14.0044 34.0816 13.7459C33.8265 13.4874 33.699 13.1762 33.699 12.8122ZM34.5255 9.05714C34.5255 8.82244 34.7075 8.51462 35.0714 8.13367L35.2092 8.28673C35.3112 8.40578 35.4031 8.53928 35.4847 8.68724C35.5663 8.8352 35.6071 8.9585 35.6071 9.05714C35.6071 9.2068 35.5553 9.3318 35.4515 9.43214C35.3478 9.53248 35.2211 9.58265 35.0714 9.58265C34.915 9.58265 34.7849 9.53248 34.6811 9.43214C34.5774 9.3318 34.5255 9.2068 34.5255 9.05714Z" fill="#71A0BA"/>
<defs>
<linearGradient id="paint0_linear" x1="9.67045" y1="47.933" x2="9.76788" y2="43.5386" gradientUnits="userSpaceOnUse">
<stop offset="0.365" stop-color="#1B5E20"/>
<stop offset="0.95" stop-color="#2E7D32"/>
</linearGradient>
<radialGradient id="paint1_radial" cx="0" cy="0" r="1" gradientUnits="userSpaceOnUse" gradientTransform="translate(12.2678 49.5317) scale(3.64975)">
<stop offset="0.209" stop-color="#1B5E20"/>
<stop offset="0.74" stop-color="#2E7D32"/>
</radialGradient>
<radialGradient id="paint2_radial" cx="0" cy="0" r="1" gradientUnits="userSpaceOnUse" gradientTransform="translate(9.35332 50.7593) scale(4.42099)">
<stop offset="0.209" stop-color="#1B5E20"/>
<stop offset="0.74" stop-color="#2E7D32"/>
</radialGradient>
<linearGradient id="paint3_linear" x1="10.0964" y1="51.1877" x2="10.0964" y2="50.2493" gradientUnits="userSpaceOnUse">
<stop stop-color="#5D4037"/>
<stop offset="1" stop-color="#5D4037" stop-opacity="0"/>
</linearGradient>
<linearGradient id="paint4_linear" x1="25.3614" y1="44.7595" x2="25.4929" y2="38.8269" gradientUnits="userSpaceOnUse">
<stop offset="0.365" stop-color="#1B5E20"/>
<stop offset="0.95" stop-color="#2E7D32"/>
</linearGradient>
<radialGradient id="paint5_radial" cx="0" cy="0" r="1" gradientUnits="userSpaceOnUse" gradientTransform="translate(28.8677 46.9179) scale(4.92716)">
<stop offset="0.209" stop-color="#1B5E20"/>
<stop offset="0.74" stop-color="#2E7D32"/>
</radialGradient>
<radialGradient id="paint6_radial" cx="0" cy="0" r="1" gradientUnits="userSpaceOnUse" gradientTransform="translate(24.9332 48.5752) scale(5.96833)">
<stop offset="0.209" stop-color="#1B5E20"/>
<stop offset="0.74" stop-color="#2E7D32"/>
</radialGradient>
<linearGradient id="paint7_linear" x1="25.9364" y1="49.1536" x2="25.9364" y2="47.8867" gradientUnits="userSpaceOnUse">
<stop stop-color="#5D4037"/>
<stop offset="1" stop-color="#5D4037" stop-opacity="0"/>
</linearGradient>
<linearGradient id="paint8_linear" x1="46.0914" y1="42.4928" x2="46.2473" y2="35.4616" gradientUnits="userSpaceOnUse">
<stop offset="0.365" stop-color="#1B5E20"/>
<stop offset="0.95" stop-color="#2E7D32"/>
</linearGradient>
<radialGradient id="paint9_radial" cx="0" cy="0" r="1" gradientUnits="userSpaceOnUse" gradientTransform="translate(50.2472 45.0509) scale(5.83959)">
<stop offset="0.209" stop-color="#1B5E20"/>
<stop offset="0.74" stop-color="#2E7D32"/>
</radialGradient>
<radialGradient id="paint10_radial" cx="0" cy="0" r="1" gradientUnits="userSpaceOnUse" gradientTransform="translate(45.584 47.015) scale(7.07358)">
<stop offset="0.209" stop-color="#1B5E20"/>
<stop offset="0.74" stop-color="#2E7D32"/>
</radialGradient>
<linearGradient id="paint11_linear" x1="46.773" y1="47.7005" x2="46.773" y2="46.199" gradientUnits="userSpaceOnUse">
<stop stop-color="#5D4037"/>
<stop offset="1" stop-color="#5D4037" stop-opacity="0"/>
</linearGradient>
<clipPath id="clip0">
<rect width="16.875" height="16.875" fill="white" transform="translate(1 40.125)"/>
</clipPath>
<clipPath id="clip1">
<rect width="22.7812" height="22.7812" fill="white" transform="translate(13.6562 34.2188)"/>
</clipPath>
</defs>
</svg>
